<svg xmlns="http://www.w3.org/2000/svg" xmlns:xlink="http://www.w3.org/1999/xlink" width="1203.22" height="977.75"><g transform="translate(-78.38988976377959 -42.99212598425197)"><path d="M933.8 1000.34h299.18V133.96H933.8zM617.8 1000.34h299.18V133.96H617.8zM302.8 1000.74h299.18V134.36H302.8z" fill="#ff8f80" opacity=".2"/><path d="M639.4 63h240v60h-240z" stroke="#fff" stroke-width="2" fill="none"/><use xlink:href="#a" transform="matrix(1,0,0,1,644.3898897637796,67.99212598425197) translate(55.074074074074076 30.333333333333336)"/><path d="M394.4 144.33h100v60h-100z" fill="none"/><use xlink:href="#b" transform="matrix(1,0,0,1,399.3898897637796,149.33070866141748) translate(26.025 28.6)"/><path d="M1024.4 144.33h100v60h-100z" fill="none"/><use xlink:href="#c" transform="matrix(1,0,0,1,1029.3898897637796,149.33070866141748) translate(17.099999999999998 28.6)"/><path d="M709.4 144.33h100v60h-100z" fill="none"/><use xlink:href="#d" transform="matrix(1,0,0,1,714.3898897637796,149.33070866141748) translate(27.049999999999997 28.6)"/><path d="M98.4 562.34h120v60h-120z" fill="none"/><use xlink:href="#e" transform="matrix(1,0,0,1,103.38988976377959,567.3420061622741) translate(-0.44444444444444287 30.333333333333336)"/><path d="M239.63 448.94H1261.6v-251.2H239.64z" fill="#3aa6dd" opacity=".2"/><path d="M218.4 830.34h100v60h-100z" fill="none"/><use xlink:href="#c" transform="matrix(1,0,0,1,223.3898897637796,835.342006162274) translate(17.099999999999998 28.6)"/><path d="M213.4 562.34h100v60h-100z" fill="none"/><use xlink:href="#d" transform="matrix(1,0,0,1,218.3898897637796,567.3420061622741) translate(27.049999999999997 28.6)"/><path d="M213.4 294.34h100v60h-100z" fill="none"/><use xlink:href="#b" transform="matrix(1,0,0,1,218.3898897637796,299.34200616227395) translate(26.025 28.6)"/><path d="M239.4 984.94h1022v-251.2h-1022zM239.4 717.94h1022v-251.2h-1022z" fill="#3aa6dd" opacity=".2"/><path d="M318.38 433.87H586.1V213.4H318.38z" stroke="#000" stroke-width="2" fill="#fff"/><use xlink:href="#f" transform="matrix(1,0,0,1,323.38163779527565,218.39800616227296) translate(42.44444444444443 89.23333333333335)"/><use xlink:href="#g" transform="matrix(1,0,0,1,323.38163779527565,218.39800616227296) translate(132.81481481481478 89.23333333333335)"/><use xlink:href="#h" transform="matrix(1,0,0,1,323.38163779527565,218.39800616227296) translate(11.650000000000006 114.30000000000001)"/><use xlink:href="#i" transform="matrix(1,0,0,1,323.38163779527565,218.39800616227296) translate(16.650000000000006 114.30000000000001)"/><use xlink:href="#j" transform="matrix(1,0,0,1,323.38163779527565,218.39800616227296) translate(59.60000000000001 114.30000000000001)"/><use xlink:href="#k" transform="matrix(1,0,0,1,323.38163779527565,218.39800616227296) translate(87.55000000000001 114.30000000000001)"/><use xlink:href="#l" transform="matrix(1,0,0,1,323.38163779527565,218.39800616227296) translate(131.55 114.30000000000001)"/><use xlink:href="#m" transform="matrix(1,0,0,1,323.38163779527565,218.39800616227296) translate(151.55 114.30000000000001)"/><use xlink:href="#n" transform="matrix(1,0,0,1,323.38163779527565,218.39800616227296) translate(198.4 114.30000000000001)"/><use xlink:href="#k" transform="matrix(1,0,0,1,323.38163779527565,218.39800616227296) translate(71.05 135.9)"/><use xlink:href="#l" transform="matrix(1,0,0,1,323.38163779527565,218.39800616227296) translate(115.05 135.9)"/><use xlink:href="#o" transform="matrix(1,0,0,1,323.38163779527565,218.39800616227296) translate(135.05 135.9)"/><use xlink:href="#p" transform="matrix(1,0,0,1,323.38163779527565,218.39800616227296) translate(160.05 135.9)"/><path d="M949.66 434.34h267.72V213.87H949.66z" stroke="#000" stroke-width="2" fill="#fff"/><use xlink:href="#q" transform="matrix(1,0,0,1,954.6646377952757,218.87000616227363) translate(35.074074074074076 89.23333333333335)"/><use xlink:href="#r" transform="matrix(1,0,0,1,954.6646377952757,218.87000616227363) translate(140.18518518518516 89.23333333333335)"/><use xlink:href="#s" transform="matrix(1,0,0,1,954.6646377952757,218.87000616227363) translate(9.25 114.30000000000001)"/><use xlink:href="#j" transform="matrix(1,0,0,1,954.6646377952757,218.87000616227363) translate(52.2 114.30000000000001)"/><use xlink:href="#t" transform="matrix(1,0,0,1,954.6646377952757,218.87000616227363) translate(80.15 114.30000000000001)"/><use xlink:href="#m" transform="matrix(1,0,0,1,954.6646377952757,218.87000616227363) translate(109.95 114.30000000000001)"/><use xlink:href="#u" transform="matrix(1,0,0,1,954.6646377952757,218.87000616227363) translate(156.8 114.30000000000001)"/><use xlink:href="#v" transform="matrix(1,0,0,1,954.6646377952757,218.87000616227363) translate(209.75 114.30000000000001)"/><use xlink:href="#l" transform="matrix(1,0,0,1,954.6646377952757,218.87000616227363) translate(93.05 135.9)"/><use xlink:href="#o" transform="matrix(1,0,0,1,954.6646377952757,218.87000616227363) translate(113.05 135.9)"/><use xlink:href="#p" transform="matrix(1,0,0,1,954.6646377952757,218.87000616227363) translate(138.05 135.9)"/><path d="M633.33 434.34h267.7V213.87h-267.7z" stroke="#000" stroke-width="2" fill="#fff"/><g><use xlink:href="#w" transform="matrix(1,0,0,1,638.3265196850393,218.87000616227363) translate(39.59259259259258 89.23333333333335)"/><use xlink:href="#r" transform="matrix(1,0,0,1,638.3265196850393,218.87000616227363) translate(135.66666666666666 89.23333333333335)"/><use xlink:href="#s" transform="matrix(1,0,0,1,638.3265196850393,218.87000616227363) translate(9.224999999999994 114.30000000000001)"/><use xlink:href="#j" transform="matrix(1,0,0,1,638.3265196850393,218.87000616227363) translate(52.175 114.30000000000001)"/><use xlink:href="#x" transform="matrix(1,0,0,1,638.3265196850393,218.87000616227363) translate(80.125 114.30000000000001)"/><use xlink:href="#m" transform="matrix(1,0,0,1,638.3265196850393,218.87000616227363) translate(153.975 114.30000000000001)"/><use xlink:href="#n" transform="matrix(1,0,0,1,638.3265196850393,218.87000616227363) translate(200.825 114.30000000000001)"/><use xlink:href="#k" transform="matrix(1,0,0,1,638.3265196850393,218.87000616227363) translate(71.05 135.9)"/><use xlink:href="#l" transform="matrix(1,0,0,1,638.3265196850393,218.87000616227363) translate(115.05 135.9)"/><use xlink:href="#o" transform="matrix(1,0,0,1,638.3265196850393,218.87000616227363) translate(135.05 135.9)"/><use xlink:href="#p" transform="matrix(1,0,0,1,638.3265196850393,218.87000616227363) translate(160.05 135.9)"/></g><path d="M318.37 969.55h267.7V749.08h-267.7z" stroke="#000" stroke-width="2" fill="#fff"/><g><use xlink:href="#y" transform="matrix(1,0,0,1,323.3658897637796,754.082163642588) translate(14.29629629629629 89.23333333333335)"/><use xlink:href="#z" transform="matrix(1,0,0,1,323.3658897637796,754.082163642588) translate(112.07407407407406 89.23333333333335)"/><use xlink:href="#s" transform="matrix(1,0,0,1,323.3658897637796,754.082163642588) translate(14.150000000000006 114.30000000000001)"/><use xlink:href="#j" transform="matrix(1,0,0,1,323.3658897637796,754.082163642588) translate(57.10000000000001 114.30000000000001)"/><use xlink:href="#k" transform="matrix(1,0,0,1,323.3658897637796,754.082163642588) translate(85.05000000000001 114.30000000000001)"/><use xlink:href="#l" transform="matrix(1,0,0,1,323.3658897637796,754.082163642588) translate(129.05 114.30000000000001)"/><use xlink:href="#m" transform="matrix(1,0,0,1,323.3658897637796,754.082163642588) translate(149.05 114.30000000000001)"/><use xlink:href="#n" transform="matrix(1,0,0,1,323.3658897637796,754.082163642588) translate(195.9 114.30000000000001)"/><use xlink:href="#t" transform="matrix(1,0,0,1,323.3658897637796,754.082163642588) translate(88.15 135.9)"/><use xlink:href="#o" transform="matrix(1,0,0,1,323.3658897637796,754.082163642588) translate(117.95 135.9)"/><use xlink:href="#p" transform="matrix(1,0,0,1,323.3658897637796,754.082163642588) translate(142.95 135.9)"/></g><path d="M947.38 970.34h267.72V749.87H947.38z" stroke="#000" stroke-width="2" fill="#fff"/><g><use xlink:href="#q" transform="matrix(1,0,0,1,952.3816377952758,754.8700061622739) translate(10.629629629629619 89.23333333333335)"/><use xlink:href="#z" transform="matrix(1,0,0,1,952.3816377952758,754.8700061622739) translate(115.74074074074072 89.23333333333335)"/><use xlink:href="#s" transform="matrix(1,0,0,1,952.3816377952758,754.8700061622739) translate(3.8499999999999943 114.30000000000001)"/><use xlink:href="#j" transform="matrix(1,0,0,1,952.3816377952758,754.8700061622739) translate(46.8 114.30000000000001)"/><use xlink:href="#t" transform="matrix(1,0,0,1,952.3816377952758,754.8700061622739) translate(74.75 114.30000000000001)"/><use xlink:href="#m" transform="matrix(1,0,0,1,952.3816377952758,754.8700061622739) translate(104.55 114.30000000000001)"/><use xlink:href="#u" transform="matrix(1,0,0,1,952.3816377952758,754.8700061622739) translate(151.4 114.30000000000001)"/><use xlink:href="#t" transform="matrix(1,0,0,1,952.3816377952758,754.8700061622739) translate(204.35 114.30000000000001)"/><use xlink:href="#A" transform="matrix(1,0,0,1,952.3816377952758,754.8700061622739) translate(234.15 114.30000000000001)"/><use xlink:href="#p" transform="matrix(1,0,0,1,952.3816377952758,754.8700061622739) translate(115.55 135.9)"/></g><path d="M633.66 970.34h267.72V749.87H633.66z" stroke="#000" stroke-width="2" fill="#fff"/><g><use xlink:href="#w" transform="matrix(1,0,0,1,638.6646377952757,754.8700061622739) translate(15.148148148148138 89.23333333333335)"/><use xlink:href="#z" transform="matrix(1,0,0,1,638.6646377952757,754.8700061622739) translate(111.22222222222221 89.23333333333335)"/><use xlink:href="#s" transform="matrix(1,0,0,1,638.6646377952757,754.8700061622739) translate(9.224999999999994 114.30000000000001)"/><use xlink:href="#j" transform="matrix(1,0,0,1,638.6646377952757,754.8700061622739) translate(52.175 114.30000000000001)"/><use xlink:href="#x" transform="matrix(1,0,0,1,638.6646377952757,754.8700061622739) translate(80.125 114.30000000000001)"/><use xlink:href="#m" transform="matrix(1,0,0,1,638.6646377952757,754.8700061622739) translate(153.975 114.30000000000001)"/><use xlink:href="#n" transform="matrix(1,0,0,1,638.6646377952757,754.8700061622739) translate(200.825 114.30000000000001)"/><use xlink:href="#t" transform="matrix(1,0,0,1,638.6646377952757,754.8700061622739) translate(88.15 135.9)"/><use xlink:href="#o" transform="matrix(1,0,0,1,638.6646377952757,754.8700061622739) translate(117.95 135.9)"/><use xlink:href="#p" transform="matrix(1,0,0,1,638.6646377952757,754.8700061622739) translate(142.95 135.9)"/></g><path d="M318.37 701.7h267.7V481.25h-267.7z" stroke="#000" stroke-width="2" fill="#fff"/><g><use xlink:href="#f" transform="matrix(1,0,0,1,323.3658897637799,486.24008490243057) translate(34.22222222222223 89.23333333333335)"/><use xlink:href="#B" transform="matrix(1,0,0,1,323.3658897637799,486.24008490243057) translate(124.5925925925926 89.23333333333335)"/><use xlink:href="#s" transform="matrix(1,0,0,1,323.3658897637799,486.24008490243057) translate(14.150000000000006 114.30000000000001)"/><use xlink:href="#j" transform="matrix(1,0,0,1,323.3658897637799,486.24008490243057) translate(57.10000000000001 114.30000000000001)"/><use xlink:href="#k" transform="matrix(1,0,0,1,323.3658897637799,486.24008490243057) translate(85.05000000000001 114.30000000000001)"/><use xlink:href="#l" transform="matrix(1,0,0,1,323.3658897637799,486.24008490243057) translate(129.05 114.30000000000001)"/><use xlink:href="#m" transform="matrix(1,0,0,1,323.3658897637799,486.24008490243057) translate(149.05 114.30000000000001)"/><use xlink:href="#n" transform="matrix(1,0,0,1,323.3658897637799,486.24008490243057) translate(195.9 114.30000000000001)"/><use xlink:href="#C" transform="matrix(1,0,0,1,323.3658897637799,486.24008490243057) translate(81.1 135.9)"/><use xlink:href="#D" transform="matrix(1,0,0,1,323.3658897637799,486.24008490243057) translate(112.05 135.9)"/><use xlink:href="#E" transform="matrix(1,0,0,1,323.3658897637799,486.24008490243057) translate(143.95 135.9)"/></g><path d="M949.66 702.34h267.72V481.87H949.66z" stroke="#000" stroke-width="2" fill="#fff"/><g><use xlink:href="#q" transform="matrix(1,0,0,1,954.6646377952757,486.87000616227385) translate(26.851851851851848 89.23333333333335)"/><use xlink:href="#B" transform="matrix(1,0,0,1,954.6646377952757,486.87000616227385) translate(131.96296296296293 89.23333333333335)"/><use xlink:href="#s" transform="matrix(1,0,0,1,954.6646377952757,486.87000616227385) translate(15.775000000000006 114.30000000000001)"/><use xlink:href="#j" transform="matrix(1,0,0,1,954.6646377952757,486.87000616227385) translate(58.72500000000001 114.30000000000001)"/><use xlink:href="#t" transform="matrix(1,0,0,1,954.6646377952757,486.87000616227385) translate(86.67500000000001 114.30000000000001)"/><use xlink:href="#m" transform="matrix(1,0,0,1,954.6646377952757,486.87000616227385) translate(116.47500000000001 114.30000000000001)"/><use xlink:href="#u" transform="matrix(1,0,0,1,954.6646377952757,486.87000616227385) translate(163.32500000000002 114.30000000000001)"/><use xlink:href="#F" transform="matrix(1,0,0,1,954.6646377952757,486.87000616227385) translate(216.275 114.30000000000001)"/><use xlink:href="#D" transform="matrix(1,0,0,1,954.6646377952757,486.87000616227385) translate(96.575 135.9)"/><use xlink:href="#E" transform="matrix(1,0,0,1,954.6646377952757,486.87000616227385) translate(128.475 135.9)"/></g><path d="M633.38 702.1H901.1V481.64H633.38z" stroke="#498a44" stroke-width="2" fill="#a3d977"/><g><use xlink:href="#w" transform="matrix(1,0,0,1,638.3816377952758,486.634006162274) translate(52.85185185185185 89.23333333333335)"/><use xlink:href="#G" transform="matrix(1,0,0,1,638.3816377952758,486.634006162274) translate(148.92592592592592 89.23333333333335)"/><use xlink:href="#s" transform="matrix(1,0,0,1,638.3816377952758,486.634006162274) translate(9.224999999999994 114.30000000000001)"/><use xlink:href="#j" transform="matrix(1,0,0,1,638.3816377952758,486.634006162274) translate(52.175 114.30000000000001)"/><use xlink:href="#x" transform="matrix(1,0,0,1,638.3816377952758,486.634006162274) translate(80.125 114.30000000000001)"/><use xlink:href="#m" transform="matrix(1,0,0,1,638.3816377952758,486.634006162274) translate(153.975 114.30000000000001)"/><use xlink:href="#n" transform="matrix(1,0,0,1,638.3816377952758,486.634006162274) translate(200.825 114.30000000000001)"/><use xlink:href="#C" transform="matrix(1,0,0,1,638.3816377952758,486.634006162274) translate(81.1 135.9)"/><use xlink:href="#D" transform="matrix(1,0,0,1,638.3816377952758,486.634006162274) translate(112.05 135.9)"/><use xlink:href="#E" transform="matrix(1,0,0,1,638.3816377952758,486.634006162274) translate(143.95 135.9)"/></g><defs><path fill="#9b0d28" d="M199 0l-22-63H83L61 0H9l90-248h61L250 0h-51zm-33-102l-36-108c-10 38-24 72-36 108h72" id="H"/><path fill="#9b0d28" d="M137-138c1-29-70-34-71-4 15 46 118 7 119 86 1 83-164 76-172 9l43-7c4 19 20 25 44 25 33 8 57-30 24-41C81-84 22-81 20-136c-2-80 154-74 161-7" id="I"/><path fill="#9b0d28" d="M185-48c-13 30-37 53-82 52C43 2 14-33 14-96s30-98 90-98c62 0 83 45 84 108H66c0 31 8 55 39 56 18 0 30-7 34-22zm-45-69c5-46-57-63-70-21-2 6-4 13-4 21h74" id="J"/><path fill="#9b0d28" d="M135-150c-39-12-60 13-60 57V0H25l-1-190h47c2 13-1 29 3 40 6-28 27-53 61-41v41" id="K"/><path fill="#9b0d28" d="M115-3C79 11 28 4 28-45v-112H4v-33h27l15-45h31v45h36v33H77v99c-1 23 16 31 38 25v30" id="L"/><path fill="#9b0d28" d="M25-224v-37h50v37H25zM25 0v-190h50V0H25" id="M"/><path fill="#9b0d28" d="M128 0H69L1-190h53L99-40l48-150h52" id="N"/><g id="a"><use transform="matrix(0.07407407407407408,0,0,0.07407407407407408,0,0)" xlink:href="#H"/><use transform="matrix(0.07407407407407408,0,0,0.07407407407407408,19.185185185185187,0)" xlink:href="#I"/><use transform="matrix(0.07407407407407408,0,0,0.07407407407407408,34,0)" xlink:href="#I"/><use transform="matrix(0.07407407407407408,0,0,0.07407407407407408,48.81481481481481,0)" xlink:href="#J"/><use transform="matrix(0.07407407407407408,0,0,0.07407407407407408,63.629629629629626,0)" xlink:href="#K"/><use transform="matrix(0.07407407407407408,0,0,0.07407407407407408,74,0)" xlink:href="#L"/><use transform="matrix(0.07407407407407408,0,0,0.07407407407407408,82.81481481481481,0)" xlink:href="#M"/><use transform="matrix(0.07407407407407408,0,0,0.07407407407407408,90.22222222222221,0)" xlink:href="#N"/><use transform="matrix(0.07407407407407408,0,0,0.07407407407407408,105.03703703703704,0)" xlink:href="#J"/></g><path d="M24-248c93 1 206-16 204 79-1 75-69 88-152 82V0H24v-248zm52 121c47 0 100 7 100-41 0-47-54-39-100-39v80" id="O"/><path d="M133-34C117-15 103 5 69 4 32 3 11-16 11-54c-1-60 55-63 116-61 1-26-3-47-28-47-18 1-26 9-28 27l-52-2c7-38 36-58 82-57s74 22 75 68l1 82c-1 14 12 18 25 15v27c-30 8-71 5-69-32zm-48 3c29 0 43-24 42-57-32 0-66-3-65 30 0 17 8 27 23 27" id="P"/><path d="M137-138c1-29-70-34-71-4 15 46 118 7 119 86 1 83-164 76-172 9l43-7c4 19 20 25 44 25 33 8 57-30 24-41C81-84 22-81 20-136c-2-80 154-74 161-7" id="Q"/><path d="M115-3C79 11 28 4 28-45v-112H4v-33h27l15-45h31v45h36v33H77v99c-1 23 16 31 38 25v30" id="R"/><g id="b"><use transform="matrix(0.05,0,0,0.05,0,0)" xlink:href="#O"/><use transform="matrix(0.05,0,0,0.05,12,0)" xlink:href="#P"/><use transform="matrix(0.05,0,0,0.05,22,0)" xlink:href="#Q"/><use transform="matrix(0.05,0,0,0.05,32,0)" xlink:href="#R"/></g><path d="M76-208v77h127v40H76V0H24v-248h183v40H76" id="S"/><path d="M85 4C-2 5 27-109 22-190h50c7 57-23 150 33 157 60-5 35-97 40-157h50l1 190h-47c-2-12 1-28-3-38-12 25-28 42-61 42" id="T"/><path d="M135-150c-39-12-60 13-60 57V0H25l-1-190h47c2 13-1 29 3 40 6-28 27-53 61-41v41" id="U"/><path d="M185-48c-13 30-37 53-82 52C43 2 14-33 14-96s30-98 90-98c62 0 83 45 84 108H66c0 31 8 55 39 56 18 0 30-7 34-22zm-45-69c5-46-57-63-70-21-2 6-4 13-4 21h74" id="V"/><g id="c"><use transform="matrix(0.05,0,0,0.05,0,0)" xlink:href="#S"/><use transform="matrix(0.05,0,0,0.05,10.950000000000001,0)" xlink:href="#T"/><use transform="matrix(0.05,0,0,0.05,21.900000000000002,0)" xlink:href="#R"/><use transform="matrix(0.05,0,0,0.05,27.85,0)" xlink:href="#T"/><use transform="matrix(0.05,0,0,0.05,38.800000000000004,0)" xlink:href="#U"/><use transform="matrix(0.05,0,0,0.05,45.800000000000004,0)" xlink:href="#V"/></g><path d="M135-194c87-1 58 113 63 194h-50c-7-57 23-157-34-157-59 0-34 97-39 157H25l-1-190h47c2 12-1 28 3 38 12-26 28-41 61-42" id="W"/><path d="M110-194c64 0 96 36 96 99 0 64-35 99-97 99-61 0-95-36-95-99 0-62 34-99 96-99zm-1 164c35 0 45-28 45-65 0-40-10-65-43-65-34 0-45 26-45 65 0 36 10 65 43 65" id="X"/><path d="M231 0h-52l-39-155L100 0H48L-1-190h46L77-45c9-52 24-97 36-145h53l37 145 32-145h46" id="Y"/><g id="d"><use transform="matrix(0.05,0,0,0.05,0,0)" xlink:href="#W"/><use transform="matrix(0.05,0,0,0.05,10.950000000000001,0)" xlink:href="#X"/><use transform="matrix(0.05,0,0,0.05,21.900000000000002,0)" xlink:href="#Y"/></g><path fill="#0c7cba" d="M24 0v-248h195v40H76v63h132v40H76v65h150V0H24" id="Z"/><path fill="#0c7cba" d="M121-226c-27-7-43 5-38 36h38v33H83V0H34v-157H6v-33h28c-9-59 32-81 87-68v32" id="aa"/><path fill="#0c7cba" d="M185-48c-13 30-37 53-82 52C43 2 14-33 14-96s30-98 90-98c62 0 83 45 84 108H66c0 31 8 55 39 56 18 0 30-7 34-22zm-45-69c5-46-57-63-70-21-2 6-4 13-4 21h74" id="ab"/><path fill="#0c7cba" d="M190-63c-7 42-38 67-86 67-59 0-84-38-90-98-12-110 154-137 174-36l-49 2c-2-19-15-32-35-32-30 0-35 28-38 64-6 74 65 87 74 30" id="ac"/><path fill="#0c7cba" d="M115-3C79 11 28 4 28-45v-112H4v-33h27l15-45h31v45h36v33H77v99c-1 23 16 31 38 25v30" id="ad"/><path fill="#0c7cba" d="M25-224v-37h50v37H25zM25 0v-190h50V0H25" id="ae"/><path fill="#0c7cba" d="M128 0H69L1-190h53L99-40l48-150h52" id="af"/><g id="e"><use transform="matrix(0.07407407407407408,0,0,0.07407407407407408,0,0)" xlink:href="#Z"/><use transform="matrix(0.07407407407407408,0,0,0.07407407407407408,17.77777777777778,0)" xlink:href="#aa"/><use transform="matrix(0.07407407407407408,0,0,0.07407407407407408,26.592592592592595,0)" xlink:href="#aa"/><use transform="matrix(0.07407407407407408,0,0,0.07407407407407408,35.40740740740741,0)" xlink:href="#ab"/><use transform="matrix(0.07407407407407408,0,0,0.07407407407407408,50.22222222222223,0)" xlink:href="#ac"/><use transform="matrix(0.07407407407407408,0,0,0.07407407407407408,65.03703703703704,0)" xlink:href="#ad"/><use transform="matrix(0.07407407407407408,0,0,0.07407407407407408,73.85185185185185,0)" xlink:href="#ae"/><use transform="matrix(0.07407407407407408,0,0,0.07407407407407408,81.25925925925925,0)" xlink:href="#af"/><use transform="matrix(0.07407407407407408,0,0,0.07407407407407408,96.07407407407408,0)" xlink:href="#ab"/></g><path d="M30-248c87 1 191-15 191 75 0 78-77 80-158 76V0H30v-248zm33 125c57 0 124 11 124-50 0-59-68-47-124-48v98" id="ag"/><path d="M100-194c62-1 85 37 85 99 1 63-27 99-86 99S16-35 15-95c0-66 28-99 85-99zM99-20c44 1 53-31 53-75 0-43-8-75-51-75s-53 32-53 75 10 74 51 75" id="ah"/><path d="M135-143c-3-34-86-38-87 0 15 53 115 12 119 90S17 21 10-45l28-5c4 36 97 45 98 0-10-56-113-15-118-90-4-57 82-63 122-42 12 7 21 19 24 35" id="ai"/><path d="M59-47c-2 24 18 29 38 22v24C64 9 27 4 27-40v-127H5v-23h24l9-43h21v43h35v23H59v120" id="aj"/><path d="M100-194c63 0 86 42 84 106H49c0 40 14 67 53 68 26 1 43-12 49-29l28 8c-11 28-37 45-77 45C44 4 14-33 15-96c1-61 26-98 85-98zm52 81c6-60-76-77-97-28-3 7-6 17-6 28h103" id="ak"/><path d="M85-194c31 0 48 13 60 33l-1-100h32l1 261h-30c-2-10 0-23-3-31C134-8 116 4 85 4 32 4 16-35 15-94c0-66 23-100 70-100zm9 24c-40 0-46 34-46 75 0 40 6 74 45 74 42 0 51-32 51-76 0-42-9-74-50-73" id="al"/><g id="f"><use transform="matrix(0.07407407407407408,0,0,0.07407407407407408,0,0)" xlink:href="#ag"/><use transform="matrix(0.07407407407407408,0,0,0.07407407407407408,17.77777777777778,0)" xlink:href="#ah"/><use transform="matrix(0.07407407407407408,0,0,0.07407407407407408,32.592592592592595,0)" xlink:href="#ai"/><use transform="matrix(0.07407407407407408,0,0,0.07407407407407408,45.92592592592593,0)" xlink:href="#aj"/><use transform="matrix(0.07407407407407408,0,0,0.07407407407407408,53.33333333333334,0)" xlink:href="#ak"/><use transform="matrix(0.07407407407407408,0,0,0.07407407407407408,68.14814814814815,0)" xlink:href="#al"/></g><path d="M197 0v-115H63V0H30v-248h33v105h134v-105h34V0h-34" id="am"/><path d="M24-231v-30h32v30H24zM24 0v-190h32V0H24" id="an"/><path d="M114-163C36-179 61-72 57 0H25l-1-190h30c1 12-1 29 2 39 6-27 23-49 58-41v29" id="ao"/><path d="M179-190L93 31C79 59 56 82 12 73V49c39 6 53-20 64-50L1-190h34L92-34l54-156h33" id="ap"/><g id="g"><use transform="matrix(0.07407407407407408,0,0,0.07407407407407408,0,0)" xlink:href="#am"/><use transform="matrix(0.07407407407407408,0,0,0.07407407407407408,19.185185185185187,0)" xlink:href="#an"/><use transform="matrix(0.07407407407407408,0,0,0.07407407407407408,25.037037037037035,0)" xlink:href="#ai"/><use transform="matrix(0.07407407407407408,0,0,0.07407407407407408,38.370370370370374,0)" xlink:href="#aj"/><use transform="matrix(0.07407407407407408,0,0,0.07407407407407408,45.777777777777786,0)" xlink:href="#ah"/><use transform="matrix(0.07407407407407408,0,0,0.07407407407407408,60.5925925925926,0)" xlink:href="#ao"/><use transform="matrix(0.07407407407407408,0,0,0.07407407407407408,69.40740740740742,0)" xlink:href="#ap"/></g><path d="M206 0h-36l-40-164L89 0H53L-1-190h32L70-26l43-164h34l41 164 42-164h31" id="aq"/><path d="M106-169C34-169 62-67 57 0H25v-261h32l-1 103c12-21 28-36 61-36 89 0 53 116 60 194h-32v-121c2-32-8-49-39-48" id="ar"/><path d="M141-36C126-15 110 5 73 4 37 3 15-17 15-53c-1-64 63-63 125-63 3-35-9-54-41-54-24 1-41 7-42 31l-33-3c5-37 33-52 76-52 45 0 72 20 72 64v82c-1 20 7 32 28 27v20c-31 9-61-2-59-35zM48-53c0 20 12 33 32 33 41-3 63-29 60-74-43 2-92-5-92 41" id="as"/><g id="i"><use transform="matrix(0.05,0,0,0.05,0,0)" xlink:href="#aq"/><use transform="matrix(0.05,0,0,0.05,12.950000000000001,0)" xlink:href="#ar"/><use transform="matrix(0.05,0,0,0.05,22.950000000000003,0)" xlink:href="#as"/><use transform="matrix(0.05,0,0,0.05,32.95,0)" xlink:href="#aj"/></g><g id="j"><use transform="matrix(0.05,0,0,0.05,0,0)" xlink:href="#aq"/><use transform="matrix(0.05,0,0,0.05,12.950000000000001,0)" xlink:href="#ak"/></g><path d="M84 4C-5 8 30-112 23-190h32v120c0 31 7 50 39 49 72-2 45-101 50-169h31l1 190h-30c-1-10 1-25-2-33-11 22-28 36-60 37" id="at"/><g id="k"><use transform="matrix(0.05,0,0,0.05,0,0)" xlink:href="#at"/><use transform="matrix(0.05,0,0,0.05,10,0)" xlink:href="#ai"/><use transform="matrix(0.05,0,0,0.05,19,0)" xlink:href="#ak"/><use transform="matrix(0.05,0,0,0.05,29,0)" xlink:href="#al"/></g><g id="l"><use transform="matrix(0.05,0,0,0.05,0,0)" xlink:href="#aj"/><use transform="matrix(0.05,0,0,0.05,5,0)" xlink:href="#ah"/></g><path d="M96-169c-40 0-48 33-48 73s9 75 48 75c24 0 41-14 43-38l32 2c-6 37-31 61-74 61-59 0-76-41-82-99-10-93 101-131 147-64 4 7 5 14 7 22l-32 3c-4-21-16-35-41-35" id="au"/><path d="M24 0v-261h32V0H24" id="av"/><path d="M210-169c-67 3-38 105-44 169h-31v-121c0-29-5-50-35-48C34-165 62-65 56 0H25l-1-190h30c1 10-1 24 2 32 10-44 99-50 107 0 11-21 27-35 58-36 85-2 47 119 55 194h-31v-121c0-29-5-49-35-48" id="aw"/><g id="m"><use transform="matrix(0.05,0,0,0.05,0,0)" xlink:href="#au"/><use transform="matrix(0.05,0,0,0.05,9,0)" xlink:href="#av"/><use transform="matrix(0.05,0,0,0.05,12.949999999999998,0)" xlink:href="#as"/><use transform="matrix(0.05,0,0,0.05,22.95,0)" xlink:href="#an"/><use transform="matrix(0.05,0,0,0.05,26.899999999999995,0)" xlink:href="#aw"/></g><path d="M117-194c89-4 53 116 60 194h-32v-121c0-31-8-49-39-48C34-167 62-67 57 0H25l-1-190h30c1 10-1 24 2 32 11-22 29-35 61-36" id="ax"/><path d="M177-190C167-65 218 103 67 71c-23-6-38-20-44-43l32-5c15 47 100 32 89-28v-30C133-14 115 1 83 1 29 1 15-40 15-95c0-56 16-97 71-98 29-1 48 16 59 35 1-10 0-23 2-32h30zM94-22c36 0 50-32 50-73 0-42-14-75-50-75-39 0-46 34-46 75s6 73 46 73" id="ay"/><g id="n"><use transform="matrix(0.05,0,0,0.05,0,0)" xlink:href="#aj"/><use transform="matrix(0.05,0,0,0.05,5,0)" xlink:href="#ar"/><use transform="matrix(0.05,0,0,0.05,15,0)" xlink:href="#an"/><use transform="matrix(0.05,0,0,0.05,18.95,0)" xlink:href="#ax"/><use transform="matrix(0.05,0,0,0.05,28.950000000000003,0)" xlink:href="#ay"/><use transform="matrix(0.05,0,0,0.05,38.95,0)" xlink:href="#ai"/></g><path d="M115-194c53 0 69 39 70 98 0 66-23 100-70 100C84 3 66-7 56-30L54 0H23l1-261h32v101c10-23 28-34 59-34zm-8 174c40 0 45-34 45-75 0-40-5-75-45-74-42 0-51 32-51 76 0 43 10 73 51 73" id="az"/><g id="o"><use transform="matrix(0.05,0,0,0.05,0,0)" xlink:href="#az"/><use transform="matrix(0.05,0,0,0.05,10,0)" xlink:href="#ak"/></g><path d="M143 0L79-87 56-68V0H24v-261h32v163l83-92h37l-77 82L181 0h-38" id="aA"/><g id="p"><use transform="matrix(0.05,0,0,0.05,0,0)" xlink:href="#av"/><use transform="matrix(0.05,0,0,0.05,3.95,0)" xlink:href="#an"/><use transform="matrix(0.05,0,0,0.05,7.9,0)" xlink:href="#aA"/><use transform="matrix(0.05,0,0,0.05,16.9,0)" xlink:href="#ak"/></g><g id="q"><use transform="matrix(0.07407407407407408,0,0,0.07407407407407408,0,0)" xlink:href="#ag"/><use transform="matrix(0.07407407407407408,0,0,0.07407407407407408,17.77777777777778,0)" xlink:href="#ak"/><use transform="matrix(0.07407407407407408,0,0,0.07407407407407408,32.592592592592595,0)" xlink:href="#ax"/><use transform="matrix(0.07407407407407408,0,0,0.07407407407407408,47.40740740740741,0)" xlink:href="#al"/><use transform="matrix(0.07407407407407408,0,0,0.07407407407407408,62.22222222222223,0)" xlink:href="#an"/><use transform="matrix(0.07407407407407408,0,0,0.07407407407407408,68.07407407407408,0)" xlink:href="#ax"/><use transform="matrix(0.07407407407407408,0,0,0.07407407407407408,82.88888888888889,0)" xlink:href="#ay"/></g><g id="r"><use transform="matrix(0.07407407407407408,0,0,0.07407407407407408,0,0)" xlink:href="#am"/><use transform="matrix(0.07407407407407408,0,0,0.07407407407407408,19.185185185185187,0)" xlink:href="#an"/><use transform="matrix(0.07407407407407408,0,0,0.07407407407407408,25.037037037037035,0)" xlink:href="#ai"/><use transform="matrix(0.07407407407407408,0,0,0.07407407407407408,38.370370370370374,0)" xlink:href="#aj"/><use transform="matrix(0.07407407407407408,0,0,0.07407407407407408,45.777777777777786,0)" xlink:href="#ah"/><use transform="matrix(0.07407407407407408,0,0,0.07407407407407408,60.5925925925926,0)" xlink:href="#ao"/><use transform="matrix(0.07407407407407408,0,0,0.07407407407407408,69.40740740740742,0)" xlink:href="#ap"/></g><g id="s"><use transform="matrix(0.05,0,0,0.05,0,0)" xlink:href="#aq"/><use transform="matrix(0.05,0,0,0.05,12.950000000000001,0)" xlink:href="#ar"/><use transform="matrix(0.05,0,0,0.05,22.950000000000003,0)" xlink:href="#as"/><use transform="matrix(0.05,0,0,0.05,32.95,0)" xlink:href="#aj"/></g><g id="t"><use transform="matrix(0.05,0,0,0.05,0,0)" xlink:href="#aq"/><use transform="matrix(0.05,0,0,0.05,12.950000000000001,0)" xlink:href="#an"/><use transform="matrix(0.05,0,0,0.05,16.900000000000002,0)" xlink:href="#av"/><use transform="matrix(0.05,0,0,0.05,20.85,0)" xlink:href="#av"/></g><g id="u"><use transform="matrix(0.05,0,0,0.05,0,0)" xlink:href="#aj"/><use transform="matrix(0.05,0,0,0.05,5,0)" xlink:href="#ar"/><use transform="matrix(0.05,0,0,0.05,15,0)" xlink:href="#an"/><use transform="matrix(0.05,0,0,0.05,18.95,0)" xlink:href="#ax"/><use transform="matrix(0.05,0,0,0.05,28.950000000000003,0)" xlink:href="#ay"/><use transform="matrix(0.05,0,0,0.05,38.95,0)" xlink:href="#ai"/></g><g id="v"><use transform="matrix(0.05,0,0,0.05,0,0)" xlink:href="#at"/><use transform="matrix(0.05,0,0,0.05,10,0)" xlink:href="#ai"/><use transform="matrix(0.05,0,0,0.05,19,0)" xlink:href="#ak"/><use transform="matrix(0.05,0,0,0.05,29,0)" xlink:href="#al"/></g><path d="M212-179c-10-28-35-45-73-45-59 0-87 40-87 99 0 60 29 101 89 101 43 0 62-24 78-52l27 14C228-24 195 4 139 4 59 4 22-46 18-125c-6-104 99-153 187-111 19 9 31 26 39 46" id="aB"/><g id="w"><use transform="matrix(0.07407407407407408,0,0,0.07407407407407408,0,0)" xlink:href="#aB"/><use transform="matrix(0.07407407407407408,0,0,0.07407407407407408,19.185185185185187,0)" xlink:href="#at"/><use transform="matrix(0.07407407407407408,0,0,0.07407407407407408,34,0)" xlink:href="#ao"/><use transform="matrix(0.07407407407407408,0,0,0.07407407407407408,42.814814814814824,0)" xlink:href="#ao"/><use transform="matrix(0.07407407407407408,0,0,0.07407407407407408,51.62962962962963,0)" xlink:href="#ak"/><use transform="matrix(0.07407407407407408,0,0,0.07407407407407408,66.44444444444446,0)" xlink:href="#ax"/><use transform="matrix(0.07407407407407408,0,0,0.07407407407407408,81.25925925925927,0)" xlink:href="#aj"/></g><g id="x"><use transform="matrix(0.05,0,0,0.05,0,0)" xlink:href="#au"/><use transform="matrix(0.05,0,0,0.05,9,0)" xlink:href="#at"/><use transform="matrix(0.05,0,0,0.05,19,0)" xlink:href="#ao"/><use transform="matrix(0.05,0,0,0.05,24.95,0)" xlink:href="#ao"/><use transform="matrix(0.05,0,0,0.05,30.899999999999995,0)" xlink:href="#ak"/><use transform="matrix(0.05,0,0,0.05,40.9,0)" xlink:href="#ax"/><use transform="matrix(0.05,0,0,0.05,50.9,0)" xlink:href="#aj"/><use transform="matrix(0.05,0,0,0.05,55.900000000000006,0)" xlink:href="#av"/><use transform="matrix(0.05,0,0,0.05,59.85,0)" xlink:href="#ap"/></g><g id="y"><use transform="matrix(0.07407407407407408,0,0,0.07407407407407408,0,0)" xlink:href="#ag"/><use transform="matrix(0.07407407407407408,0,0,0.07407407407407408,17.77777777777778,0)" xlink:href="#ah"/><use transform="matrix(0.07407407407407408,0,0,0.07407407407407408,32.592592592592595,0)" xlink:href="#ai"/><use transform="matrix(0.07407407407407408,0,0,0.07407407407407408,45.92592592592593,0)" xlink:href="#aj"/><use transform="matrix(0.07407407407407408,0,0,0.07407407407407408,53.33333333333334,0)" xlink:href="#ak"/><use transform="matrix(0.07407407407407408,0,0,0.07407407407407408,68.14814814814815,0)" xlink:href="#al"/></g><path d="M24-231v-30h32v30H24zM-9 49c24 4 33-6 33-30v-209h32V24c2 40-23 58-65 49V49" id="aC"/><g id="z"><use transform="matrix(0.07407407407407408,0,0,0.07407407407407408,0,0)" xlink:href="#ag"/><use transform="matrix(0.07407407407407408,0,0,0.07407407407407408,17.77777777777778,0)" xlink:href="#ao"/><use transform="matrix(0.07407407407407408,0,0,0.07407407407407408,26.592592592592595,0)" xlink:href="#ah"/><use transform="matrix(0.07407407407407408,0,0,0.07407407407407408,41.40740740740741,0)" xlink:href="#aC"/><use transform="matrix(0.07407407407407408,0,0,0.07407407407407408,47.25925925925927,0)" xlink:href="#ak"/><use transform="matrix(0.07407407407407408,0,0,0.07407407407407408,62.07407407407408,0)" xlink:href="#au"/><use transform="matrix(0.07407407407407408,0,0,0.07407407407407408,75.40740740740742,0)" xlink:href="#aj"/><use transform="matrix(0.07407407407407408,0,0,0.07407407407407408,82.81481481481482,0)" xlink:href="#an"/><use transform="matrix(0.07407407407407408,0,0,0.07407407407407408,88.66666666666667,0)" xlink:href="#ah"/><use transform="matrix(0.07407407407407408,0,0,0.07407407407407408,103.4814814814815,0)" xlink:href="#ax"/><use transform="matrix(0.07407407407407408,0,0,0.07407407407407408,118.29629629629632,0)" xlink:href="#ai"/></g><g id="A"><use transform="matrix(0.05,0,0,0.05,0,0)" xlink:href="#az"/><use transform="matrix(0.05,0,0,0.05,10,0)" xlink:href="#ak"/></g><path d="M232-93c-1 65-40 97-104 97C67 4 28-28 28-90v-158h33c8 89-33 224 67 224 102 0 64-133 71-224h33v155" id="aD"/><path d="M115-194c55 1 70 41 70 98S169 2 115 4C84 4 66-9 55-30l1 105H24l-1-265h31l2 30c10-21 28-34 59-34zm-8 174c40 0 45-34 45-75s-6-73-45-74c-42 0-51 32-51 76 0 43 10 73 51 73" id="aE"/><g id="B"><use transform="matrix(0.07407407407407408,0,0,0.07407407407407408,0,0)" xlink:href="#aD"/><use transform="matrix(0.07407407407407408,0,0,0.07407407407407408,19.185185185185187,0)" xlink:href="#aE"/><use transform="matrix(0.07407407407407408,0,0,0.07407407407407408,34,0)" xlink:href="#al"/><use transform="matrix(0.07407407407407408,0,0,0.07407407407407408,48.81481481481481,0)" xlink:href="#as"/><use transform="matrix(0.07407407407407408,0,0,0.07407407407407408,63.629629629629626,0)" xlink:href="#aj"/><use transform="matrix(0.07407407407407408,0,0,0.07407407407407408,71.03703703703704,0)" xlink:href="#ak"/><use transform="matrix(0.07407407407407408,0,0,0.07407407407407408,85.85185185185185,0)" xlink:href="#ai"/></g><g id="C"><use transform="matrix(0.05,0,0,0.05,0,0)" xlink:href="#as"/><use transform="matrix(0.05,0,0,0.05,10,0)" xlink:href="#ao"/><use transform="matrix(0.05,0,0,0.05,15.949999999999998,0)" xlink:href="#ak"/></g><g id="D"><use transform="matrix(0.05,0,0,0.05,0,0)" xlink:href="#av"/><use transform="matrix(0.05,0,0,0.05,3.95,0)" xlink:href="#an"/><use transform="matrix(0.05,0,0,0.05,7.9,0)" xlink:href="#aA"/><use transform="matrix(0.05,0,0,0.05,16.9,0)" xlink:href="#ak"/></g><g id="E"><use transform="matrix(0.05,0,0,0.05,0,0)" xlink:href="#ax"/><use transform="matrix(0.05,0,0,0.05,10,0)" xlink:href="#ah"/><use transform="matrix(0.05,0,0,0.05,20,0)" xlink:href="#aq"/></g><g id="F"><use transform="matrix(0.05,0,0,0.05,0,0)" xlink:href="#as"/><use transform="matrix(0.05,0,0,0.05,10,0)" xlink:href="#ao"/><use transform="matrix(0.05,0,0,0.05,15.949999999999998,0)" xlink:href="#ak"/></g><path d="M30-248c118-7 216 8 213 122C240-48 200 0 122 0H30v-248zM63-27c89 8 146-16 146-99s-60-101-146-95v194" id="aF"/><g id="G"><use transform="matrix(0.07407407407407408,0,0,0.07407407407407408,0,0)" xlink:href="#aF"/><use transform="matrix(0.07407407407407408,0,0,0.07407407407407408,19.185185185185187,0)" xlink:href="#as"/><use transform="matrix(0.07407407407407408,0,0,0.07407407407407408,34,0)" xlink:href="#aj"/><use transform="matrix(0.07407407407407408,0,0,0.07407407407407408,41.407407407407405,0)" xlink:href="#as"/></g></defs></g></svg>