<svg xmlns="http://www.w3.org/2000/svg" xmlns:xlink="http://www.w3.org/1999/xlink" width="2688" height="1760"><g transform="translate(0 0)"><path d="M1507.4 1323h299.2V456.6h-299.2z" fill="#5abaa7" opacity=".3"/><path d="M1598 467h100v60h-100z" fill="none"/><use xlink:href="#a" transform="matrix(1,0,0,1,1603,471.9887024991433) translate(17.099999999999998 28.6)"/><path d="M580.37 649.24h913.66V365.78H580.37z" fill="url(#b)" opacity=".3"/><path d="M860.08 369.04h305.38v19.63H860.08z" fill="none"/><use xlink:href="#c" transform="matrix(1,0,0,1,865.0834833313612,374.04056059197495) translate(93.15 14.4)"/><use xlink:href="#d" transform="matrix(1,0,0,1,865.0834833313612,374.04056059197495) translate(153.95000000000002 14.4)"/><use xlink:href="#e" transform="matrix(1,0,0,1,865.0834833313612,374.04056059197495) translate(164.9 14.4)"/><path d="M582.4 1181.1h913.66V661.42H582.4z" fill="url(#f)" opacity=".3"/><path d="M862.1 667.64h305.4v36H862.1z" fill="none"/><use xlink:href="#g" transform="matrix(1,0,0,1,867.114979394353,672.6402306545058) translate(130.05 16.6)"/><path d="M267.8 1323H567V456.6H267.8z" fill="#ef8d22" opacity=".3"/><path d="M359.4 466.6h100v60h-100z" fill="none"/><use xlink:href="#h" transform="matrix(1,0,0,1,364.40551181102364,471.5872221841827) translate(26.025 28.6)"/><path d="M283.46 1023.96h267.72V803.5H283.46z" stroke="#000" stroke-width="2" fill="#fff"/><use xlink:href="#i" transform="matrix(1,0,0,1,288.4645669291338,808.4886299212598) translate(42.44444444444443 89.23333333333335)"/><use xlink:href="#j" transform="matrix(1,0,0,1,288.4645669291338,808.4886299212598) translate(132.81481481481478 89.23333333333335)"/><use xlink:href="#k" transform="matrix(1,0,0,1,288.4645669291338,808.4886299212598) translate(11.650000000000006 114.30000000000001)"/><use xlink:href="#l" transform="matrix(1,0,0,1,288.4645669291338,808.4886299212598) translate(16.650000000000006 114.30000000000001)"/><use xlink:href="#m" transform="matrix(1,0,0,1,288.4645669291338,808.4886299212598) translate(59.60000000000001 114.30000000000001)"/><use xlink:href="#n" transform="matrix(1,0,0,1,288.4645669291338,808.4886299212598) translate(87.55000000000001 114.30000000000001)"/><use xlink:href="#o" transform="matrix(1,0,0,1,288.4645669291338,808.4886299212598) translate(131.55 114.30000000000001)"/><use xlink:href="#p" transform="matrix(1,0,0,1,288.4645669291338,808.4886299212598) translate(151.55 114.30000000000001)"/><use xlink:href="#q" transform="matrix(1,0,0,1,288.4645669291338,808.4886299212598) translate(198.4 114.30000000000001)"/><use xlink:href="#n" transform="matrix(1,0,0,1,288.4645669291338,808.4886299212598) translate(71.05 135.9)"/><use xlink:href="#o" transform="matrix(1,0,0,1,288.4645669291338,808.4886299212598) translate(115.05 135.9)"/><use xlink:href="#r" transform="matrix(1,0,0,1,288.4645669291338,808.4886299212598) translate(135.05 135.9)"/><use xlink:href="#s" transform="matrix(1,0,0,1,288.4645669291338,808.4886299212598) translate(160.05 135.9)"/><path d="M881.14 618.24h267.72V397.76H881.14z" stroke="#000" stroke-width="2" fill="#fff"/><use xlink:href="#t" transform="matrix(1,0,0,1,886.1415,402.764) translate(35.074074074074076 89.23333333333335)"/><use xlink:href="#u" transform="matrix(1,0,0,1,886.1415,402.764) translate(140.18518518518516 89.23333333333335)"/><use xlink:href="#v" transform="matrix(1,0,0,1,886.1415,402.764) translate(9.25 114.30000000000001)"/><use xlink:href="#m" transform="matrix(1,0,0,1,886.1415,402.764) translate(52.2 114.30000000000001)"/><use xlink:href="#w" transform="matrix(1,0,0,1,886.1415,402.764) translate(80.15 114.30000000000001)"/><use xlink:href="#p" transform="matrix(1,0,0,1,886.1415,402.764) translate(109.95 114.30000000000001)"/><use xlink:href="#x" transform="matrix(1,0,0,1,886.1415,402.764) translate(156.8 114.30000000000001)"/><use xlink:href="#y" transform="matrix(1,0,0,1,886.1415,402.764) translate(209.75 114.30000000000001)"/><use xlink:href="#o" transform="matrix(1,0,0,1,886.1415,402.764) translate(93.05 135.9)"/><use xlink:href="#r" transform="matrix(1,0,0,1,886.1415,402.764) translate(113.05 135.9)"/><use xlink:href="#s" transform="matrix(1,0,0,1,886.1415,402.764) translate(138.05 135.9)"/><path d="M598.43 913.4h267.7V692.9h-267.7z" stroke="#000" stroke-width="2" fill="#fff"/><g><use xlink:href="#z" transform="matrix(1,0,0,1,603.4251968503936,697.9133858267716) translate(39.59259259259258 89.23333333333335)"/><use xlink:href="#u" transform="matrix(1,0,0,1,603.4251968503936,697.9133858267716) translate(135.66666666666666 89.23333333333335)"/><use xlink:href="#v" transform="matrix(1,0,0,1,603.4251968503936,697.9133858267716) translate(9.224999999999994 114.30000000000001)"/><use xlink:href="#m" transform="matrix(1,0,0,1,603.4251968503936,697.9133858267716) translate(52.175 114.30000000000001)"/><use xlink:href="#A" transform="matrix(1,0,0,1,603.4251968503936,697.9133858267716) translate(80.125 114.30000000000001)"/><use xlink:href="#p" transform="matrix(1,0,0,1,603.4251968503936,697.9133858267716) translate(153.975 114.30000000000001)"/><use xlink:href="#q" transform="matrix(1,0,0,1,603.4251968503936,697.9133858267716) translate(200.825 114.30000000000001)"/><use xlink:href="#n" transform="matrix(1,0,0,1,603.4251968503936,697.9133858267716) translate(71.05 135.9)"/><use xlink:href="#o" transform="matrix(1,0,0,1,603.4251968503936,697.9133858267716) translate(115.05 135.9)"/><use xlink:href="#r" transform="matrix(1,0,0,1,603.4251968503936,697.9133858267716) translate(135.05 135.9)"/><use xlink:href="#s" transform="matrix(1,0,0,1,603.4251968503936,697.9133858267716) translate(160.05 135.9)"/></g><path d="M1523.28 1039H1791V818.53h-267.72z" stroke="#000" stroke-width="2" fill="#fff"/><g><use xlink:href="#t" transform="matrix(1,0,0,1,1528.283,823.528) translate(10.629629629629619 89.23333333333335)"/><use xlink:href="#B" transform="matrix(1,0,0,1,1528.283,823.528) translate(115.74074074074072 89.23333333333335)"/><use xlink:href="#v" transform="matrix(1,0,0,1,1528.283,823.528) translate(3.8499999999999943 114.30000000000001)"/><use xlink:href="#m" transform="matrix(1,0,0,1,1528.283,823.528) translate(46.8 114.30000000000001)"/><use xlink:href="#w" transform="matrix(1,0,0,1,1528.283,823.528) translate(74.75 114.30000000000001)"/><use xlink:href="#p" transform="matrix(1,0,0,1,1528.283,823.528) translate(104.55 114.30000000000001)"/><use xlink:href="#x" transform="matrix(1,0,0,1,1528.283,823.528) translate(151.4 114.30000000000001)"/><use xlink:href="#w" transform="matrix(1,0,0,1,1528.283,823.528) translate(204.35 114.30000000000001)"/><use xlink:href="#C" transform="matrix(1,0,0,1,1528.283,823.528) translate(234.15 114.30000000000001)"/><use xlink:href="#s" transform="matrix(1,0,0,1,1528.283,823.528) translate(115.55 135.9)"/></g><path d="M1202.84 1165.35h267.72V944.88h-267.72z" stroke="#000" stroke-width="2" fill="#fff"/><g><use xlink:href="#z" transform="matrix(1,0,0,1,1207.8442559055118,949.8818897637793) translate(15.148148148148138 89.23333333333335)"/><use xlink:href="#B" transform="matrix(1,0,0,1,1207.8442559055118,949.8818897637793) translate(111.22222222222221 89.23333333333335)"/><use xlink:href="#v" transform="matrix(1,0,0,1,1207.8442559055118,949.8818897637793) translate(9.224999999999994 114.30000000000001)"/><use xlink:href="#m" transform="matrix(1,0,0,1,1207.8442559055118,949.8818897637793) translate(52.175 114.30000000000001)"/><use xlink:href="#A" transform="matrix(1,0,0,1,1207.8442559055118,949.8818897637793) translate(80.125 114.30000000000001)"/><use xlink:href="#p" transform="matrix(1,0,0,1,1207.8442559055118,949.8818897637793) translate(153.975 114.30000000000001)"/><use xlink:href="#q" transform="matrix(1,0,0,1,1207.8442559055118,949.8818897637793) translate(200.825 114.30000000000001)"/><use xlink:href="#w" transform="matrix(1,0,0,1,1207.8442559055118,949.8818897637793) translate(88.15 135.9)"/><use xlink:href="#r" transform="matrix(1,0,0,1,1207.8442559055118,949.8818897637793) translate(117.95 135.9)"/><use xlink:href="#s" transform="matrix(1,0,0,1,1207.8442559055118,949.8818897637793) translate(142.95 135.9)"/></g><path d="M598 1149.6h267.72V929.14H598z" stroke="#000" stroke-width="2" fill="#fff"/><g><use xlink:href="#i" transform="matrix(1,0,0,1,603,934.1338582677165) translate(34.22222222222223 89.23333333333335)"/><use xlink:href="#D" transform="matrix(1,0,0,1,603,934.1338582677165) translate(124.5925925925926 89.23333333333335)"/><use xlink:href="#v" transform="matrix(1,0,0,1,603,934.1338582677165) translate(14.150000000000006 114.30000000000001)"/><use xlink:href="#m" transform="matrix(1,0,0,1,603,934.1338582677165) translate(57.10000000000001 114.30000000000001)"/><use xlink:href="#n" transform="matrix(1,0,0,1,603,934.1338582677165) translate(85.05000000000001 114.30000000000001)"/><use xlink:href="#o" transform="matrix(1,0,0,1,603,934.1338582677165) translate(129.05 114.30000000000001)"/><use xlink:href="#p" transform="matrix(1,0,0,1,603,934.1338582677165) translate(149.05 114.30000000000001)"/><use xlink:href="#q" transform="matrix(1,0,0,1,603,934.1338582677165) translate(195.9 114.30000000000001)"/><use xlink:href="#E" transform="matrix(1,0,0,1,603,934.1338582677165) translate(81.1 135.9)"/><use xlink:href="#F" transform="matrix(1,0,0,1,603,934.1338582677165) translate(112.05 135.9)"/><use xlink:href="#G" transform="matrix(1,0,0,1,603,934.1338582677165) translate(143.95 135.9)"/></g><path d="M1202.84 913h267.72V692.53h-267.72z" stroke="#000" stroke-width="2" fill="#fff"/><g><use xlink:href="#t" transform="matrix(1,0,0,1,1207.8442559055118,697.528) translate(26.851851851851848 89.23333333333335)"/><use xlink:href="#D" transform="matrix(1,0,0,1,1207.8442559055118,697.528) translate(131.96296296296293 89.23333333333335)"/><use xlink:href="#v" transform="matrix(1,0,0,1,1207.8442559055118,697.528) translate(15.775000000000006 114.30000000000001)"/><use xlink:href="#m" transform="matrix(1,0,0,1,1207.8442559055118,697.528) translate(58.72500000000001 114.30000000000001)"/><use xlink:href="#w" transform="matrix(1,0,0,1,1207.8442559055118,697.528) translate(86.67500000000001 114.30000000000001)"/><use xlink:href="#p" transform="matrix(1,0,0,1,1207.8442559055118,697.528) translate(116.47500000000001 114.30000000000001)"/><use xlink:href="#x" transform="matrix(1,0,0,1,1207.8442559055118,697.528) translate(163.32500000000002 114.30000000000001)"/><use xlink:href="#H" transform="matrix(1,0,0,1,1207.8442559055118,697.528) translate(216.275 114.30000000000001)"/><use xlink:href="#F" transform="matrix(1,0,0,1,1207.8442559055118,697.528) translate(96.575 135.9)"/><use xlink:href="#G" transform="matrix(1,0,0,1,1207.8442559055118,697.528) translate(128.475 135.9)"/></g><path d="M898.28 1039.37H1166V818.9H898.28z" stroke="#000" stroke-width="2" fill="#ffdf71"/><g><use xlink:href="#z" transform="matrix(1,0,0,1,903.283,823.8976377952755) translate(52.85185185185185 89.23333333333335)"/><use xlink:href="#I" transform="matrix(1,0,0,1,903.283,823.8976377952755) translate(148.92592592592592 89.23333333333335)"/><use xlink:href="#v" transform="matrix(1,0,0,1,903.283,823.8976377952755) translate(9.224999999999994 114.30000000000001)"/><use xlink:href="#m" transform="matrix(1,0,0,1,903.283,823.8976377952755) translate(52.175 114.30000000000001)"/><use xlink:href="#A" transform="matrix(1,0,0,1,903.283,823.8976377952755) translate(80.125 114.30000000000001)"/><use xlink:href="#p" transform="matrix(1,0,0,1,903.283,823.8976377952755) translate(153.975 114.30000000000001)"/><use xlink:href="#q" transform="matrix(1,0,0,1,903.283,823.8976377952755) translate(200.825 114.30000000000001)"/><use xlink:href="#E" transform="matrix(1,0,0,1,903.283,823.8976377952755) translate(81.1 135.9)"/><use xlink:href="#F" transform="matrix(1,0,0,1,903.283,823.8976377952755) translate(112.05 135.9)"/><use xlink:href="#G" transform="matrix(1,0,0,1,903.283,823.8976377952755) translate(143.95 135.9)"/></g><g opacity=".3"><path d="M582 1476.74h913.66v-283.46H582z" fill="url(#J)"/></g><path d="M879.3 1212.24h305.4v19.63H879.3z" fill="none"/><g><use xlink:href="#K" transform="matrix(1,0,0,1,884.3109719188357,1217.2357643763032) translate(93.14999999999999 14.4)"/><use xlink:href="#d" transform="matrix(1,0,0,1,884.3109719188357,1217.2357643763032) translate(136.1 14.4)"/><use xlink:href="#L" transform="matrix(1,0,0,1,884.3109719188357,1217.2357643763032) translate(147.05 14.4)"/></g><path d="M905.14 1464.57h267.72V1244.1H905.14z" stroke="#000" stroke-width="2" fill="#fff"/><g><use xlink:href="#M" transform="matrix(1,0,0,1,910.1415,1249.0944881889764) translate(14.29629629629629 89.23333333333335)"/><use xlink:href="#B" transform="matrix(1,0,0,1,910.1415,1249.0944881889764) translate(112.07407407407406 89.23333333333335)"/><use xlink:href="#v" transform="matrix(1,0,0,1,910.1415,1249.0944881889764) translate(14.150000000000006 114.30000000000001)"/><use xlink:href="#m" transform="matrix(1,0,0,1,910.1415,1249.0944881889764) translate(57.10000000000001 114.30000000000001)"/><use xlink:href="#n" transform="matrix(1,0,0,1,910.1415,1249.0944881889764) translate(85.05000000000001 114.30000000000001)"/><use xlink:href="#o" transform="matrix(1,0,0,1,910.1415,1249.0944881889764) translate(129.05 114.30000000000001)"/><use xlink:href="#p" transform="matrix(1,0,0,1,910.1415,1249.0944881889764) translate(149.05 114.30000000000001)"/><use xlink:href="#q" transform="matrix(1,0,0,1,910.1415,1249.0944881889764) translate(195.9 114.30000000000001)"/><use xlink:href="#w" transform="matrix(1,0,0,1,910.1415,1249.0944881889764) translate(88.15 135.9)"/><use xlink:href="#r" transform="matrix(1,0,0,1,910.1415,1249.0944881889764) translate(117.95 135.9)"/><use xlink:href="#s" transform="matrix(1,0,0,1,910.1415,1249.0944881889764) translate(142.95 135.9)"/></g><path d="M724.4 204.72h240v60h-240z" stroke="#fff" stroke-width="2" fill="none"/><g><use xlink:href="#N" transform="matrix(1,0,0,1,729.4094488188975,209.7244094488189) translate(55.074074074074076 30.333333333333336)"/></g><path d="M929.13 205h120v60h-120z" fill="none"/><g><use xlink:href="#O" transform="matrix(1,0,0,1,934.1338582677165,210) translate(-0.44444444444444287 30.333333333333336)"/></g><defs><path d="M76-208v77h127v40H76V0H24v-248h183v40H76" id="P"/><path d="M85 4C-2 5 27-109 22-190h50c7 57-23 150 33 157 60-5 35-97 40-157h50l1 190h-47c-2-12 1-28-3-38-12 25-28 42-61 42" id="Q"/><path d="M115-3C79 11 28 4 28-45v-112H4v-33h27l15-45h31v45h36v33H77v99c-1 23 16 31 38 25v30" id="R"/><path d="M135-150c-39-12-60 13-60 57V0H25l-1-190h47c2 13-1 29 3 40 6-28 27-53 61-41v41" id="S"/><path d="M185-48c-13 30-37 53-82 52C43 2 14-33 14-96s30-98 90-98c62 0 83 45 84 108H66c0 31 8 55 39 56 18 0 30-7 34-22zm-45-69c5-46-57-63-70-21-2 6-4 13-4 21h74" id="T"/><g id="a"><use transform="matrix(0.05,0,0,0.05,0,0)" xlink:href="#P"/><use transform="matrix(0.05,0,0,0.05,10.950000000000001,0)" xlink:href="#Q"/><use transform="matrix(0.05,0,0,0.05,21.900000000000002,0)" xlink:href="#R"/><use transform="matrix(0.05,0,0,0.05,27.85,0)" xlink:href="#Q"/><use transform="matrix(0.05,0,0,0.05,38.800000000000004,0)" xlink:href="#S"/><use transform="matrix(0.05,0,0,0.05,45.800000000000004,0)" xlink:href="#T"/></g><linearGradient gradientUnits="userSpaceOnUse" id="b" x1="580.37" y1="649.24" x2="1494.03" y2="649.24"><stop offset=".56%" stop-color="#ef8d22"/><stop offset="99.44%" stop-color="#5abaa7"/></linearGradient><g id="c"><use transform="matrix(0.05,0,0,0.05,0,0)" xlink:href="#P"/><use transform="matrix(0.05,0,0,0.05,10.950000000000001,0)" xlink:href="#Q"/><use transform="matrix(0.05,0,0,0.05,21.900000000000002,0)" xlink:href="#R"/><use transform="matrix(0.05,0,0,0.05,27.85,0)" xlink:href="#Q"/><use transform="matrix(0.05,0,0,0.05,38.800000000000004,0)" xlink:href="#S"/><use transform="matrix(0.05,0,0,0.05,45.800000000000004,0)" xlink:href="#T"/></g><path d="M14-72v-43h91v43H14" id="U"/><use transform="matrix(0.05,0,0,0.05,0,0)" xlink:href="#U" id="d"/><path d="M24-248c93 1 206-16 204 79-1 75-69 88-152 82V0H24v-248zm52 121c47 0 100 7 100-41 0-47-54-39-100-39v80" id="V"/><path d="M133-34C117-15 103 5 69 4 32 3 11-16 11-54c-1-60 55-63 116-61 1-26-3-47-28-47-18 1-26 9-28 27l-52-2c7-38 36-58 82-57s74 22 75 68l1 82c-1 14 12 18 25 15v27c-30 8-71 5-69-32zm-48 3c29 0 43-24 42-57-32 0-66-3-65 30 0 17 8 27 23 27" id="W"/><path d="M137-138c1-29-70-34-71-4 15 46 118 7 119 86 1 83-164 76-172 9l43-7c4 19 20 25 44 25 33 8 57-30 24-41C81-84 22-81 20-136c-2-80 154-74 161-7" id="X"/><g id="e"><use transform="matrix(0.05,0,0,0.05,0,0)" xlink:href="#V"/><use transform="matrix(0.05,0,0,0.05,12,0)" xlink:href="#W"/><use transform="matrix(0.05,0,0,0.05,22,0)" xlink:href="#X"/><use transform="matrix(0.05,0,0,0.05,32,0)" xlink:href="#R"/></g><radialGradient gradientUnits="userSpaceOnUse" id="f" fx="1039.23" fy="921.26" cx="1039.23" cy="921.26" r="411.15"><stop offset="0%" stop-color="#f4b004"/><stop offset="100%" stop-color="#fff"/></radialGradient><path d="M135-194c87-1 58 113 63 194h-50c-7-57 23-157-34-157-59 0-34 97-39 157H25l-1-190h47c2 12-1 28 3 38 12-26 28-41 61-42" id="Y"/><path d="M110-194c64 0 96 36 96 99 0 64-35 99-97 99-61 0-95-36-95-99 0-62 34-99 96-99zm-1 164c35 0 45-28 45-65 0-40-10-65-43-65-34 0-45 26-45 65 0 36 10 65 43 65" id="Z"/><path d="M231 0h-52l-39-155L100 0H48L-1-190h46L77-45c9-52 24-97 36-145h53l37 145 32-145h46" id="aa"/><g id="g"><use transform="matrix(0.05,0,0,0.05,0,0)" xlink:href="#Y"/><use transform="matrix(0.05,0,0,0.05,10.950000000000001,0)" xlink:href="#Z"/><use transform="matrix(0.05,0,0,0.05,21.900000000000002,0)" xlink:href="#aa"/></g><g id="h"><use transform="matrix(0.05,0,0,0.05,0,0)" xlink:href="#V"/><use transform="matrix(0.05,0,0,0.05,12,0)" xlink:href="#W"/><use transform="matrix(0.05,0,0,0.05,22,0)" xlink:href="#X"/><use transform="matrix(0.05,0,0,0.05,32,0)" xlink:href="#R"/></g><path d="M30-248c87 1 191-15 191 75 0 78-77 80-158 76V0H30v-248zm33 125c57 0 124 11 124-50 0-59-68-47-124-48v98" id="ab"/><path d="M100-194c62-1 85 37 85 99 1 63-27 99-86 99S16-35 15-95c0-66 28-99 85-99zM99-20c44 1 53-31 53-75 0-43-8-75-51-75s-53 32-53 75 10 74 51 75" id="ac"/><path d="M135-143c-3-34-86-38-87 0 15 53 115 12 119 90S17 21 10-45l28-5c4 36 97 45 98 0-10-56-113-15-118-90-4-57 82-63 122-42 12 7 21 19 24 35" id="ad"/><path d="M59-47c-2 24 18 29 38 22v24C64 9 27 4 27-40v-127H5v-23h24l9-43h21v43h35v23H59v120" id="ae"/><path d="M100-194c63 0 86 42 84 106H49c0 40 14 67 53 68 26 1 43-12 49-29l28 8c-11 28-37 45-77 45C44 4 14-33 15-96c1-61 26-98 85-98zm52 81c6-60-76-77-97-28-3 7-6 17-6 28h103" id="af"/><path d="M85-194c31 0 48 13 60 33l-1-100h32l1 261h-30c-2-10 0-23-3-31C134-8 116 4 85 4 32 4 16-35 15-94c0-66 23-100 70-100zm9 24c-40 0-46 34-46 75 0 40 6 74 45 74 42 0 51-32 51-76 0-42-9-74-50-73" id="ag"/><g id="i"><use transform="matrix(0.07407407407407408,0,0,0.07407407407407408,0,0)" xlink:href="#ab"/><use transform="matrix(0.07407407407407408,0,0,0.07407407407407408,17.77777777777778,0)" xlink:href="#ac"/><use transform="matrix(0.07407407407407408,0,0,0.07407407407407408,32.592592592592595,0)" xlink:href="#ad"/><use transform="matrix(0.07407407407407408,0,0,0.07407407407407408,45.92592592592593,0)" xlink:href="#ae"/><use transform="matrix(0.07407407407407408,0,0,0.07407407407407408,53.33333333333334,0)" xlink:href="#af"/><use transform="matrix(0.07407407407407408,0,0,0.07407407407407408,68.14814814814815,0)" xlink:href="#ag"/></g><path d="M197 0v-115H63V0H30v-248h33v105h134v-105h34V0h-34" id="ah"/><path d="M24-231v-30h32v30H24zM24 0v-190h32V0H24" id="ai"/><path d="M114-163C36-179 61-72 57 0H25l-1-190h30c1 12-1 29 2 39 6-27 23-49 58-41v29" id="aj"/><path d="M179-190L93 31C79 59 56 82 12 73V49c39 6 53-20 64-50L1-190h34L92-34l54-156h33" id="ak"/><g id="j"><use transform="matrix(0.07407407407407408,0,0,0.07407407407407408,0,0)" xlink:href="#ah"/><use transform="matrix(0.07407407407407408,0,0,0.07407407407407408,19.185185185185187,0)" xlink:href="#ai"/><use transform="matrix(0.07407407407407408,0,0,0.07407407407407408,25.037037037037035,0)" xlink:href="#ad"/><use transform="matrix(0.07407407407407408,0,0,0.07407407407407408,38.370370370370374,0)" xlink:href="#ae"/><use transform="matrix(0.07407407407407408,0,0,0.07407407407407408,45.777777777777786,0)" xlink:href="#ac"/><use transform="matrix(0.07407407407407408,0,0,0.07407407407407408,60.5925925925926,0)" xlink:href="#aj"/><use transform="matrix(0.07407407407407408,0,0,0.07407407407407408,69.40740740740742,0)" xlink:href="#ak"/></g><path d="M206 0h-36l-40-164L89 0H53L-1-190h32L70-26l43-164h34l41 164 42-164h31" id="al"/><path d="M106-169C34-169 62-67 57 0H25v-261h32l-1 103c12-21 28-36 61-36 89 0 53 116 60 194h-32v-121c2-32-8-49-39-48" id="am"/><path d="M141-36C126-15 110 5 73 4 37 3 15-17 15-53c-1-64 63-63 125-63 3-35-9-54-41-54-24 1-41 7-42 31l-33-3c5-37 33-52 76-52 45 0 72 20 72 64v82c-1 20 7 32 28 27v20c-31 9-61-2-59-35zM48-53c0 20 12 33 32 33 41-3 63-29 60-74-43 2-92-5-92 41" id="an"/><g id="l"><use transform="matrix(0.05,0,0,0.05,0,0)" xlink:href="#al"/><use transform="matrix(0.05,0,0,0.05,12.950000000000001,0)" xlink:href="#am"/><use transform="matrix(0.05,0,0,0.05,22.950000000000003,0)" xlink:href="#an"/><use transform="matrix(0.05,0,0,0.05,32.95,0)" xlink:href="#ae"/></g><g id="m"><use transform="matrix(0.05,0,0,0.05,0,0)" xlink:href="#al"/><use transform="matrix(0.05,0,0,0.05,12.950000000000001,0)" xlink:href="#af"/></g><path d="M84 4C-5 8 30-112 23-190h32v120c0 31 7 50 39 49 72-2 45-101 50-169h31l1 190h-30c-1-10 1-25-2-33-11 22-28 36-60 37" id="ao"/><g id="n"><use transform="matrix(0.05,0,0,0.05,0,0)" xlink:href="#ao"/><use transform="matrix(0.05,0,0,0.05,10,0)" xlink:href="#ad"/><use transform="matrix(0.05,0,0,0.05,19,0)" xlink:href="#af"/><use transform="matrix(0.05,0,0,0.05,29,0)" xlink:href="#ag"/></g><g id="o"><use transform="matrix(0.05,0,0,0.05,0,0)" xlink:href="#ae"/><use transform="matrix(0.05,0,0,0.05,5,0)" xlink:href="#ac"/></g><path d="M96-169c-40 0-48 33-48 73s9 75 48 75c24 0 41-14 43-38l32 2c-6 37-31 61-74 61-59 0-76-41-82-99-10-93 101-131 147-64 4 7 5 14 7 22l-32 3c-4-21-16-35-41-35" id="ap"/><path d="M24 0v-261h32V0H24" id="aq"/><path d="M210-169c-67 3-38 105-44 169h-31v-121c0-29-5-50-35-48C34-165 62-65 56 0H25l-1-190h30c1 10-1 24 2 32 10-44 99-50 107 0 11-21 27-35 58-36 85-2 47 119 55 194h-31v-121c0-29-5-49-35-48" id="ar"/><g id="p"><use transform="matrix(0.05,0,0,0.05,0,0)" xlink:href="#ap"/><use transform="matrix(0.05,0,0,0.05,9,0)" xlink:href="#aq"/><use transform="matrix(0.05,0,0,0.05,12.949999999999998,0)" xlink:href="#an"/><use transform="matrix(0.05,0,0,0.05,22.95,0)" xlink:href="#ai"/><use transform="matrix(0.05,0,0,0.05,26.899999999999995,0)" xlink:href="#ar"/></g><path d="M117-194c89-4 53 116 60 194h-32v-121c0-31-8-49-39-48C34-167 62-67 57 0H25l-1-190h30c1 10-1 24 2 32 11-22 29-35 61-36" id="as"/><path d="M177-190C167-65 218 103 67 71c-23-6-38-20-44-43l32-5c15 47 100 32 89-28v-30C133-14 115 1 83 1 29 1 15-40 15-95c0-56 16-97 71-98 29-1 48 16 59 35 1-10 0-23 2-32h30zM94-22c36 0 50-32 50-73 0-42-14-75-50-75-39 0-46 34-46 75s6 73 46 73" id="at"/><g id="q"><use transform="matrix(0.05,0,0,0.05,0,0)" xlink:href="#ae"/><use transform="matrix(0.05,0,0,0.05,5,0)" xlink:href="#am"/><use transform="matrix(0.05,0,0,0.05,15,0)" xlink:href="#ai"/><use transform="matrix(0.05,0,0,0.05,18.95,0)" xlink:href="#as"/><use transform="matrix(0.05,0,0,0.05,28.950000000000003,0)" xlink:href="#at"/><use transform="matrix(0.05,0,0,0.05,38.95,0)" xlink:href="#ad"/></g><path d="M115-194c53 0 69 39 70 98 0 66-23 100-70 100C84 3 66-7 56-30L54 0H23l1-261h32v101c10-23 28-34 59-34zm-8 174c40 0 45-34 45-75 0-40-5-75-45-74-42 0-51 32-51 76 0 43 10 73 51 73" id="au"/><g id="r"><use transform="matrix(0.05,0,0,0.05,0,0)" xlink:href="#au"/><use transform="matrix(0.05,0,0,0.05,10,0)" xlink:href="#af"/></g><path d="M143 0L79-87 56-68V0H24v-261h32v163l83-92h37l-77 82L181 0h-38" id="av"/><g id="s"><use transform="matrix(0.05,0,0,0.05,0,0)" xlink:href="#aq"/><use transform="matrix(0.05,0,0,0.05,3.95,0)" xlink:href="#ai"/><use transform="matrix(0.05,0,0,0.05,7.9,0)" xlink:href="#av"/><use transform="matrix(0.05,0,0,0.05,16.9,0)" xlink:href="#af"/></g><g id="t"><use transform="matrix(0.07407407407407408,0,0,0.07407407407407408,0,0)" xlink:href="#ab"/><use transform="matrix(0.07407407407407408,0,0,0.07407407407407408,17.77777777777778,0)" xlink:href="#af"/><use transform="matrix(0.07407407407407408,0,0,0.07407407407407408,32.592592592592595,0)" xlink:href="#as"/><use transform="matrix(0.07407407407407408,0,0,0.07407407407407408,47.40740740740741,0)" xlink:href="#ag"/><use transform="matrix(0.07407407407407408,0,0,0.07407407407407408,62.22222222222223,0)" xlink:href="#ai"/><use transform="matrix(0.07407407407407408,0,0,0.07407407407407408,68.07407407407408,0)" xlink:href="#as"/><use transform="matrix(0.07407407407407408,0,0,0.07407407407407408,82.88888888888889,0)" xlink:href="#at"/></g><g id="u"><use transform="matrix(0.07407407407407408,0,0,0.07407407407407408,0,0)" xlink:href="#ah"/><use transform="matrix(0.07407407407407408,0,0,0.07407407407407408,19.185185185185187,0)" xlink:href="#ai"/><use transform="matrix(0.07407407407407408,0,0,0.07407407407407408,25.037037037037035,0)" xlink:href="#ad"/><use transform="matrix(0.07407407407407408,0,0,0.07407407407407408,38.370370370370374,0)" xlink:href="#ae"/><use transform="matrix(0.07407407407407408,0,0,0.07407407407407408,45.777777777777786,0)" xlink:href="#ac"/><use transform="matrix(0.07407407407407408,0,0,0.07407407407407408,60.5925925925926,0)" xlink:href="#aj"/><use transform="matrix(0.07407407407407408,0,0,0.07407407407407408,69.40740740740742,0)" xlink:href="#ak"/></g><g id="v"><use transform="matrix(0.05,0,0,0.05,0,0)" xlink:href="#al"/><use transform="matrix(0.05,0,0,0.05,12.950000000000001,0)" xlink:href="#am"/><use transform="matrix(0.05,0,0,0.05,22.950000000000003,0)" xlink:href="#an"/><use transform="matrix(0.05,0,0,0.05,32.95,0)" xlink:href="#ae"/></g><g id="w"><use transform="matrix(0.05,0,0,0.05,0,0)" xlink:href="#al"/><use transform="matrix(0.05,0,0,0.05,12.950000000000001,0)" xlink:href="#ai"/><use transform="matrix(0.05,0,0,0.05,16.900000000000002,0)" xlink:href="#aq"/><use transform="matrix(0.05,0,0,0.05,20.85,0)" xlink:href="#aq"/></g><g id="x"><use transform="matrix(0.05,0,0,0.05,0,0)" xlink:href="#ae"/><use transform="matrix(0.05,0,0,0.05,5,0)" xlink:href="#am"/><use transform="matrix(0.05,0,0,0.05,15,0)" xlink:href="#ai"/><use transform="matrix(0.05,0,0,0.05,18.95,0)" xlink:href="#as"/><use transform="matrix(0.05,0,0,0.05,28.950000000000003,0)" xlink:href="#at"/><use transform="matrix(0.05,0,0,0.05,38.95,0)" xlink:href="#ad"/></g><g id="y"><use transform="matrix(0.05,0,0,0.05,0,0)" xlink:href="#ao"/><use transform="matrix(0.05,0,0,0.05,10,0)" xlink:href="#ad"/><use transform="matrix(0.05,0,0,0.05,19,0)" xlink:href="#af"/><use transform="matrix(0.05,0,0,0.05,29,0)" xlink:href="#ag"/></g><path d="M212-179c-10-28-35-45-73-45-59 0-87 40-87 99 0 60 29 101 89 101 43 0 62-24 78-52l27 14C228-24 195 4 139 4 59 4 22-46 18-125c-6-104 99-153 187-111 19 9 31 26 39 46" id="aw"/><g id="z"><use transform="matrix(0.07407407407407408,0,0,0.07407407407407408,0,0)" xlink:href="#aw"/><use transform="matrix(0.07407407407407408,0,0,0.07407407407407408,19.185185185185187,0)" xlink:href="#ao"/><use transform="matrix(0.07407407407407408,0,0,0.07407407407407408,34,0)" xlink:href="#aj"/><use transform="matrix(0.07407407407407408,0,0,0.07407407407407408,42.814814814814824,0)" xlink:href="#aj"/><use transform="matrix(0.07407407407407408,0,0,0.07407407407407408,51.62962962962963,0)" xlink:href="#af"/><use transform="matrix(0.07407407407407408,0,0,0.07407407407407408,66.44444444444446,0)" xlink:href="#as"/><use transform="matrix(0.07407407407407408,0,0,0.07407407407407408,81.25925925925927,0)" xlink:href="#ae"/></g><g id="A"><use transform="matrix(0.05,0,0,0.05,0,0)" xlink:href="#ap"/><use transform="matrix(0.05,0,0,0.05,9,0)" xlink:href="#ao"/><use transform="matrix(0.05,0,0,0.05,19,0)" xlink:href="#aj"/><use transform="matrix(0.05,0,0,0.05,24.95,0)" xlink:href="#aj"/><use transform="matrix(0.05,0,0,0.05,30.899999999999995,0)" xlink:href="#af"/><use transform="matrix(0.05,0,0,0.05,40.9,0)" xlink:href="#as"/><use transform="matrix(0.05,0,0,0.05,50.9,0)" xlink:href="#ae"/><use transform="matrix(0.05,0,0,0.05,55.900000000000006,0)" xlink:href="#aq"/><use transform="matrix(0.05,0,0,0.05,59.85,0)" xlink:href="#ak"/></g><path d="M24-231v-30h32v30H24zM-9 49c24 4 33-6 33-30v-209h32V24c2 40-23 58-65 49V49" id="ax"/><g id="B"><use transform="matrix(0.07407407407407408,0,0,0.07407407407407408,0,0)" xlink:href="#ab"/><use transform="matrix(0.07407407407407408,0,0,0.07407407407407408,17.77777777777778,0)" xlink:href="#aj"/><use transform="matrix(0.07407407407407408,0,0,0.07407407407407408,26.592592592592595,0)" xlink:href="#ac"/><use transform="matrix(0.07407407407407408,0,0,0.07407407407407408,41.40740740740741,0)" xlink:href="#ax"/><use transform="matrix(0.07407407407407408,0,0,0.07407407407407408,47.25925925925927,0)" xlink:href="#af"/><use transform="matrix(0.07407407407407408,0,0,0.07407407407407408,62.07407407407408,0)" xlink:href="#ap"/><use transform="matrix(0.07407407407407408,0,0,0.07407407407407408,75.40740740740742,0)" xlink:href="#ae"/><use transform="matrix(0.07407407407407408,0,0,0.07407407407407408,82.81481481481482,0)" xlink:href="#ai"/><use transform="matrix(0.07407407407407408,0,0,0.07407407407407408,88.66666666666667,0)" xlink:href="#ac"/><use transform="matrix(0.07407407407407408,0,0,0.07407407407407408,103.4814814814815,0)" xlink:href="#as"/><use transform="matrix(0.07407407407407408,0,0,0.07407407407407408,118.29629629629632,0)" xlink:href="#ad"/></g><g id="C"><use transform="matrix(0.05,0,0,0.05,0,0)" xlink:href="#au"/><use transform="matrix(0.05,0,0,0.05,10,0)" xlink:href="#af"/></g><path d="M232-93c-1 65-40 97-104 97C67 4 28-28 28-90v-158h33c8 89-33 224 67 224 102 0 64-133 71-224h33v155" id="ay"/><path d="M115-194c55 1 70 41 70 98S169 2 115 4C84 4 66-9 55-30l1 105H24l-1-265h31l2 30c10-21 28-34 59-34zm-8 174c40 0 45-34 45-75s-6-73-45-74c-42 0-51 32-51 76 0 43 10 73 51 73" id="az"/><g id="D"><use transform="matrix(0.07407407407407408,0,0,0.07407407407407408,0,0)" xlink:href="#ay"/><use transform="matrix(0.07407407407407408,0,0,0.07407407407407408,19.185185185185187,0)" xlink:href="#az"/><use transform="matrix(0.07407407407407408,0,0,0.07407407407407408,34,0)" xlink:href="#ag"/><use transform="matrix(0.07407407407407408,0,0,0.07407407407407408,48.81481481481481,0)" xlink:href="#an"/><use transform="matrix(0.07407407407407408,0,0,0.07407407407407408,63.629629629629626,0)" xlink:href="#ae"/><use transform="matrix(0.07407407407407408,0,0,0.07407407407407408,71.03703703703704,0)" xlink:href="#af"/><use transform="matrix(0.07407407407407408,0,0,0.07407407407407408,85.85185185185185,0)" xlink:href="#ad"/></g><g id="E"><use transform="matrix(0.05,0,0,0.05,0,0)" xlink:href="#an"/><use transform="matrix(0.05,0,0,0.05,10,0)" xlink:href="#aj"/><use transform="matrix(0.05,0,0,0.05,15.949999999999998,0)" xlink:href="#af"/></g><g id="F"><use transform="matrix(0.05,0,0,0.05,0,0)" xlink:href="#aq"/><use transform="matrix(0.05,0,0,0.05,3.95,0)" xlink:href="#ai"/><use transform="matrix(0.05,0,0,0.05,7.9,0)" xlink:href="#av"/><use transform="matrix(0.05,0,0,0.05,16.9,0)" xlink:href="#af"/></g><g id="G"><use transform="matrix(0.05,0,0,0.05,0,0)" xlink:href="#as"/><use transform="matrix(0.05,0,0,0.05,10,0)" xlink:href="#ac"/><use transform="matrix(0.05,0,0,0.05,20,0)" xlink:href="#al"/></g><g id="H"><use transform="matrix(0.05,0,0,0.05,0,0)" xlink:href="#an"/><use transform="matrix(0.05,0,0,0.05,10,0)" xlink:href="#aj"/><use transform="matrix(0.05,0,0,0.05,15.949999999999998,0)" xlink:href="#af"/></g><path d="M30-248c118-7 216 8 213 122C240-48 200 0 122 0H30v-248zM63-27c89 8 146-16 146-99s-60-101-146-95v194" id="aA"/><g id="I"><use transform="matrix(0.07407407407407408,0,0,0.07407407407407408,0,0)" xlink:href="#aA"/><use transform="matrix(0.07407407407407408,0,0,0.07407407407407408,19.185185185185187,0)" xlink:href="#an"/><use transform="matrix(0.07407407407407408,0,0,0.07407407407407408,34,0)" xlink:href="#ae"/><use transform="matrix(0.07407407407407408,0,0,0.07407407407407408,41.407407407407405,0)" xlink:href="#an"/></g><linearGradient gradientUnits="userSpaceOnUse" id="J" x1="582" y1="1476.74" x2="1495.66" y2="1476.74"><stop offset=".56%" stop-color="#ef8d22"/><stop offset="99.44%" stop-color="#5abaa7"/></linearGradient><g id="K"><use transform="matrix(0.05,0,0,0.05,0,0)" xlink:href="#V"/><use transform="matrix(0.05,0,0,0.05,12,0)" xlink:href="#W"/><use transform="matrix(0.05,0,0,0.05,22,0)" xlink:href="#X"/><use transform="matrix(0.05,0,0,0.05,32,0)" xlink:href="#R"/></g><g id="L"><use transform="matrix(0.05,0,0,0.05,0,0)" xlink:href="#P"/><use transform="matrix(0.05,0,0,0.05,10.950000000000001,0)" xlink:href="#Q"/><use transform="matrix(0.05,0,0,0.05,21.900000000000002,0)" xlink:href="#R"/><use transform="matrix(0.05,0,0,0.05,27.85,0)" xlink:href="#Q"/><use transform="matrix(0.05,0,0,0.05,38.800000000000004,0)" xlink:href="#S"/><use transform="matrix(0.05,0,0,0.05,45.800000000000004,0)" xlink:href="#T"/></g><g id="M"><use transform="matrix(0.07407407407407408,0,0,0.07407407407407408,0,0)" xlink:href="#ab"/><use transform="matrix(0.07407407407407408,0,0,0.07407407407407408,17.77777777777778,0)" xlink:href="#ac"/><use transform="matrix(0.07407407407407408,0,0,0.07407407407407408,32.592592592592595,0)" xlink:href="#ad"/><use transform="matrix(0.07407407407407408,0,0,0.07407407407407408,45.92592592592593,0)" xlink:href="#ae"/><use transform="matrix(0.07407407407407408,0,0,0.07407407407407408,53.33333333333334,0)" xlink:href="#af"/><use transform="matrix(0.07407407407407408,0,0,0.07407407407407408,68.14814814814815,0)" xlink:href="#ag"/></g><path fill="#9b0d28" d="M199 0l-22-63H83L61 0H9l90-248h61L250 0h-51zm-33-102l-36-108c-10 38-24 72-36 108h72" id="aB"/><path fill="#9b0d28" d="M137-138c1-29-70-34-71-4 15 46 118 7 119 86 1 83-164 76-172 9l43-7c4 19 20 25 44 25 33 8 57-30 24-41C81-84 22-81 20-136c-2-80 154-74 161-7" id="aC"/><path fill="#9b0d28" d="M185-48c-13 30-37 53-82 52C43 2 14-33 14-96s30-98 90-98c62 0 83 45 84 108H66c0 31 8 55 39 56 18 0 30-7 34-22zm-45-69c5-46-57-63-70-21-2 6-4 13-4 21h74" id="aD"/><path fill="#9b0d28" d="M135-150c-39-12-60 13-60 57V0H25l-1-190h47c2 13-1 29 3 40 6-28 27-53 61-41v41" id="aE"/><path fill="#9b0d28" d="M115-3C79 11 28 4 28-45v-112H4v-33h27l15-45h31v45h36v33H77v99c-1 23 16 31 38 25v30" id="aF"/><path fill="#9b0d28" d="M25-224v-37h50v37H25zM25 0v-190h50V0H25" id="aG"/><path fill="#9b0d28" d="M128 0H69L1-190h53L99-40l48-150h52" id="aH"/><g id="N"><use transform="matrix(0.07407407407407408,0,0,0.07407407407407408,0,0)" xlink:href="#aB"/><use transform="matrix(0.07407407407407408,0,0,0.07407407407407408,19.185185185185187,0)" xlink:href="#aC"/><use transform="matrix(0.07407407407407408,0,0,0.07407407407407408,34,0)" xlink:href="#aC"/><use transform="matrix(0.07407407407407408,0,0,0.07407407407407408,48.81481481481481,0)" xlink:href="#aD"/><use transform="matrix(0.07407407407407408,0,0,0.07407407407407408,63.629629629629626,0)" xlink:href="#aE"/><use transform="matrix(0.07407407407407408,0,0,0.07407407407407408,74,0)" xlink:href="#aF"/><use transform="matrix(0.07407407407407408,0,0,0.07407407407407408,82.81481481481481,0)" xlink:href="#aG"/><use transform="matrix(0.07407407407407408,0,0,0.07407407407407408,90.22222222222221,0)" xlink:href="#aH"/><use transform="matrix(0.07407407407407408,0,0,0.07407407407407408,105.03703703703704,0)" xlink:href="#aD"/></g><path fill="#0c7cba" d="M24 0v-248h195v40H76v63h132v40H76v65h150V0H24" id="aI"/><path fill="#0c7cba" d="M121-226c-27-7-43 5-38 36h38v33H83V0H34v-157H6v-33h28c-9-59 32-81 87-68v32" id="aJ"/><path fill="#0c7cba" d="M185-48c-13 30-37 53-82 52C43 2 14-33 14-96s30-98 90-98c62 0 83 45 84 108H66c0 31 8 55 39 56 18 0 30-7 34-22zm-45-69c5-46-57-63-70-21-2 6-4 13-4 21h74" id="aK"/><path fill="#0c7cba" d="M190-63c-7 42-38 67-86 67-59 0-84-38-90-98-12-110 154-137 174-36l-49 2c-2-19-15-32-35-32-30 0-35 28-38 64-6 74 65 87 74 30" id="aL"/><path fill="#0c7cba" d="M115-3C79 11 28 4 28-45v-112H4v-33h27l15-45h31v45h36v33H77v99c-1 23 16 31 38 25v30" id="aM"/><path fill="#0c7cba" d="M25-224v-37h50v37H25zM25 0v-190h50V0H25" id="aN"/><path fill="#0c7cba" d="M128 0H69L1-190h53L99-40l48-150h52" id="aO"/><g id="O"><use transform="matrix(0.07407407407407408,0,0,0.07407407407407408,0,0)" xlink:href="#aI"/><use transform="matrix(0.07407407407407408,0,0,0.07407407407407408,17.77777777777778,0)" xlink:href="#aJ"/><use transform="matrix(0.07407407407407408,0,0,0.07407407407407408,26.592592592592595,0)" xlink:href="#aJ"/><use transform="matrix(0.07407407407407408,0,0,0.07407407407407408,35.40740740740741,0)" xlink:href="#aK"/><use transform="matrix(0.07407407407407408,0,0,0.07407407407407408,50.22222222222223,0)" xlink:href="#aL"/><use transform="matrix(0.07407407407407408,0,0,0.07407407407407408,65.03703703703704,0)" xlink:href="#aM"/><use transform="matrix(0.07407407407407408,0,0,0.07407407407407408,73.85185185185185,0)" xlink:href="#aN"/><use transform="matrix(0.07407407407407408,0,0,0.07407407407407408,81.25925925925925,0)" xlink:href="#aO"/><use transform="matrix(0.07407407407407408,0,0,0.07407407407407408,96.07407407407408,0)" xlink:href="#aK"/></g></defs></g></svg>