<svg xmlns="http://www.w3.org/2000/svg" xmlns:xlink="http://www.w3.org/1999/xlink" width="1953.39" height="1362.93"><g transform="translate(-247.71653543307082 -247.53543307086613)"><path d="M267.72 1448.82H567V330.72H267.72z" fill="#ef8d22" opacity=".3"/><path d="M359.4 353h100v60h-100z" fill="none"/><use xlink:href="#a" transform="matrix(1,0,0,1,364.40551181102364,358) translate(26.025 28.6)"/><path d="M1507.4 1449h299.2V331h-299.2z" fill="#5abaa7" opacity=".3"/><path d="M1598 344.4h100v77.4h-100z" fill="none"/><use xlink:href="#b" transform="matrix(1,0,0,1,1603,349.38736045016174) translate(17.099999999999998 37.6)"/><path d="M582.34 551H1496V267.54H582.34z" fill="url(#c)" opacity=".3"/><path d="M862.05 270.8h305.38v19.63H862.05z" fill="none"/><use xlink:href="#d" transform="matrix(1,0,0,1,867.0519872683691,275.79838987386523) translate(93.15 14.4)"/><use xlink:href="#e" transform="matrix(1,0,0,1,867.0519872683691,275.79838987386523) translate(153.95000000000002 14.4)"/><use xlink:href="#f" transform="matrix(1,0,0,1,867.0519872683691,275.79838987386523) translate(164.9 14.4)"/><path d="M582.4 1307.1h913.66V551.17H582.4z" fill="url(#g)" opacity=".4"/><path d="M862.1 560.23h305.4v52.35H862.1z" fill="none"/><use xlink:href="#h" transform="matrix(1,0,0,1,867.114979394353,565.2326046456376) translate(130.05 25.1)"/><path d="M582 1590.46h913.66V1307H582z" fill="url(#i)" opacity=".3"/><path d="M879.3 1325.96h305.4v19.63H879.3z" fill="none"/><use xlink:href="#j" transform="matrix(1,0,0,1,884.3109719188357,1330.9582500550428) translate(93.14999999999999 14.4)"/><use xlink:href="#e" transform="matrix(1,0,0,1,884.3109719188357,1330.9582500550428) translate(136.1 14.4)"/><use xlink:href="#k" transform="matrix(1,0,0,1,884.3109719188357,1330.9582500550428) translate(147.05 14.4)"/><path d="M1772 842.67l-.26-.64-.3-.7-.4-.74-.46-.85-.58-.94-.72-1.06-.9-1.2-1.13-1.43-1.47-1.66-1.92-2-2.58-2.5-3.6-3.2-5.28-4.3-8.3-6.2-15.08-10.27-48.46-29.9-126.47-77.36-44.76-30.58-32.4-24.2-25.06-20.44-20.04-17.8-9.18-8.68-92.6-86.78-49.07-42.05-36.47-28.65-29.27-21.1-24.47-16.1-20.98-12.56-18.3-9.96-16.22-7.95-14.54-6.4-13.16-5.13-12.02-4.13-11.06-3.3-10.26-2.57-9.57-2-9-1.46-8.46-1.03-8.04-.64-7.66-.28-7.33.03-1.54.05-14.87.83-14.37 1.4-13.95 1.97-13.64 2.5-13.4 3.05-13.25 3.6-13.2 4.2-13.2 4.8-13.28 5.48-13.47 6.23-13.78 7.08-14.2 8.07-14.77 9.25-15.54 10.65-16.57 12.42-18 14.7L773.17 458l-23.04 22.3-28.18 29.65-39.47 45.26-235.76 287.86-20.07 21.6M1772 842.67l1.8 2.4" stroke="#642766" stroke-width="4" fill="none"/><path d="M426.67 864.67l6.3-13.6 6.8 6.3z" stroke="#642766" stroke-width="4" fill="#642766"/><path d="M1762.66 1024l-6.5 1.63-9.17 2.7-12.95 4.44-17.98 7-23.9 10.46-29.68 14.5-34.13 18.5-36.46 21.73-36.72 24.05-35.5 25.4-33.28 26.02-30.65 26.08-27.87 25.8L1416 1244l-64.03 67.6-114.83 123.34-31.9 30.8-23.3 20.67-18.68 15.2-15.68 11.72-13.56 9.26-11.97 7.46-10.74 6.1-9.75 5-8.96 4.12-8.32 3.4-7.76 2.82-7.3 2.3-6.9 1.87-6.6 1.5-6.3 1.14-6.07.83-5.87.57-5.48.3-3.27.05-3.43-.1-3.62-.25-3.82-.43-4.07-.63-4.36-.87-4.7-1.13-5.08-1.46-5.56-1.85-6.1-2.33-6.8-2.92-7.65-3.66-8.7-4.63-10.03-5.9-11.8-7.62-14.23-10.05-17.8-13.72-23.53-19.8-35.6-32.63-154.1-150.47-17.1-14.4-12.2-9.4-9.36-6.62-7.47-4.83-6.18-3.63-5.2-2.78-4.5-2.15-3.9-1.68-3.45-1.3-3.08-1.04-2.78-.8-2.53-.6-2.3-.47-2.15-.32-1.98-.23-.24-.02-8.08-.86-8.6-1.3-9.17-1.76-9.72-2.3-10.3-2.9-10.9-3.55-11.45-4.3-11.98-5.05-12.46-5.9-12.85-6.74-13.12-7.62-13.3-8.48-13.33-9.3-13.22-10.06-12.95-10.76-12.57-11.36-12.06-11.86-11.47-12.25-10.8-12.56-10.1-12.77-9.34-12.9-8.58-12.97-7.83-12.98-7.1-12.94-6.36-12.88-5.67-12.8-5-12.68-4.36-12.58-3.3-10.9" fill="none"/><path d="M1762.66 1024l-6.5 1.63-9.17 2.7-3.5 1.2m-18.74 6.86l-8.7 3.37-23.88 10.46-4.06 2m-17.93 8.75l-7.7 3.76-27.58 14.93m-17.3 9.95l-25.7 15.34-8.35 5.47m-16.7 10.93l-11.7 7.65-21.1 15.1m-16.16 11.7l-31.45 24.58m-15.2 12.93l-15.5 13.2-14.36 13.3m-14.62 13.6L1416 1244l-17.05 18m-13.72 14.5l-27.45 28.98m-13.65 14.55l-27.2 29.22m-13.6 14.6l-27.2 29.22m-13.6 14.6l-25.4 27.27-1.9 1.85m-14.37 13.86l-15.63 15.1-13.6 12.06m-15.14 13.02l-13.24 10.77-15.68 11.72-2.7 1.85m-16.65 11.02l-6.18 3.84-10.74 6.1-9.75 5-8.47 3.9m-18.64 7.1l-5.22 1.64-6.9 1.87-6.6 1.5-6.3 1.14-6.07.83-5.87.57-2.1.1m-19.9-.9l-1.7-.26-4.34-.87-4.7-1.13-5.08-1.46-5.56-1.85-6.1-2.33-6.8-2.92-3.48-1.66m-17.6-9.4l-5.3-3.12-11.8-7.62-14.23-10.05-1.83-1.4m-15.8-12.2l-.16-.12-23.53-19.8-6.6-6.04m-14.7-13.5l-14.3-13.1-14.7-14.33m-14.28-13.95l-28.56-27.88m-14.28-13.95l-28.56-27.9m-14.28-13.93l-28.56-27.9m-14.52-13.68l-13.47-11.33-12.2-9.4-5.64-4m-16.8-10.74l-.58-.34-5.2-2.78-4.5-2.15-3.9-1.68-3.45-1.3-3.08-1.04-2.78-.8-2.53-.6-2.3-.47-2.15-.32-1.98-.23-.24-.02-4.9-.52m-19.7-3.15l-1.25-.24-9.72-2.3-10.3-2.9-10.9-3.55-6.07-2.27m-18.47-7.6l-11.37-5.37-12.85-6.74-11.08-6.44m-16.84-10.7l-11.83-8.26-13.22-10.06-6.83-5.68m-15.03-13.12l-3.66-3.32-12.06-11.86-11.47-12.25-.83-.97m-12.86-15.25l-7.2-9.12-9.35-12.9-6.83-10.32m-10.36-17.04l-6.3-11.52-6.38-12.88-5.03-11.35m-7.2-18.6l-2.8-8.1-3.3-10.9M1762.66 1024l2.9-.8" stroke="#642766" stroke-width="4" fill="none"/><path d="M327.33 994l8.7 12.23-8.85 2.77z" stroke="#642766" stroke-width="4" fill="#642766"/><path d="M1623.98 946l-1118.65-5.33M1623.98 946h3" stroke="#498a44" stroke-width="5" fill="none"/><path d="M505.33 940.67l14.3-4.57-.05 9.27z" stroke="#498a44" stroke-width="5" fill="#498a44"/><path d="M2039.37 407.95H1937" stroke="#642766" stroke-width="4" fill="none"/><path d="M1937 407.95l14.27-4.63v9.27z" stroke="#642766" stroke-width="4" fill="#642766"/><path d="M2039.37 377.95h125.98v60h-125.98z" fill="none"/><use xlink:href="#l" transform="matrix(1,0,0,1,2044.3700787401572,382.95275590551176) translate(16.049999999999997 28.6)"/><use xlink:href="#m" transform="matrix(1,0,0,1,2044.3700787401572,382.95275590551176) translate(79 28.6)"/><path d="M2055.12 458.95l-126 1.68" fill="none"/><path d="M2055.12 458.95l-21 .28m-21 .28l-42 .57m-21 .28l-21 .28" stroke="#642766" stroke-width="4" fill="none"/><path d="M2055.12 458.95l-.03-2h.02z" fill="#642766"/><path d="M1929.13 460.63l14.2-4.82.13 9.27z" stroke="#642766" stroke-width="4" fill="#642766"/><path d="M2055.12 428.95h125.98v60h-125.98z" fill="none"/><use xlink:href="#n" transform="matrix(1,0,0,1,2060.11811023622,433.95275590551176) translate(26.525 28.6)"/><path d="M2046.9 518.95l-117.77-3.2" stroke="#498a44" stroke-width="5" fill="none"/><path d="M2046.9 521.45h-.07l.07-2.55z" fill="#498a44"/><path d="M1929.13 515.75l14.4-4.25-.26 9.27z" stroke="#498a44" stroke-width="5" fill="#498a44"/><path d="M2046.9 488.95h86.82v60h-86.82z" fill="none"/><use xlink:href="#o" transform="matrix(1,0,0,1,2051.897637795276,493.9527559055118) translate(10.524999999999999 28.6)"/><path d="M1678.67 1020l-4.6 4.14-13.25 10.95-27.5 20.92-38.68 27-43.28 27.64-43.6 25.34-41.8 22.03-39.2 18.6-36.3 15.4-33.5 12.57-30.9 10.15-18.07 5.25-29.86 7.58-33.5 7.02-37.8 6.3-42.9 5.3-49.1 3.97-56.88 2.22-68.62-.23-110.7-4.2-1.3.03-92.1 2.92-14.7-.42-11.54-.8-10.45-1.2-10.4-1.63-11.2-2.24-13.14-3.2-17.26-5.02-27.63-9.3-4.9-1.77-2.87-1.1-3.37-1.5-4.13-2-5.4-2.93-8.34-5-54.54-34.73-11.85-6.4-10.58-5.17-9.9-4.32-9.02-3.5-11.3-4.4-8.8-3.87-7.3-3.55-6.33-3.44-5.7-3.4-5.33-3.5-5.14-3.7-5.16-4.03-5.4-4.62-6.04-5.62-7.5-7.6-12.2-13.48-85.13-96.78" fill="none"/><path d="M1678.67 1020l-4.6 4.14-10.74 8.87m-15.92 12.3l-14.1 10.72-18.44 12.88m-16.5 11.52l-3.72 2.6-30.07 19.2m-17.04 10.66l-34.77 20.22m-17.68 9.58l-29.13 15.35-6.6 3.13m-18.16 8.62l-14.44 6.84-22.33 9.47m-18.6 7.65l-28.88 10.85-8.9 2.92m-19.1 6.28l-2.9.95L1308 1220l-17.8 4.52m-19.57 4.64l-26 5.44-13.47 2.25m-19.84 3.3l-4.47.74-35.42 4.36m-20.02 1.94l-36.55 2.97-3.54.14m-20.08.8l-33.26 1.3-6.94-.03m-20.1-.07l-40.23-.12m-20.1-.72l-40.2-1.53m-20.1-.76l-31.66-1.2-1.3.03-7.23.23m-20.1.64l-40.2 1.27m-20.1.64l-4.47.14-14.7-.42-11.53-.8-9.42-1.08m-19.8-3.43l-2.82-.57-13.15-3.2-17.26-5.02-5.53-1.85m-19.05-6.42l-3.04-1.02-4.9-1.77-2.87-1.1-3.37-1.5-4.13-2-5.4-2.93-8.34-5-3.87-2.45m-16.97-10.8l-33.7-21.48-.23-.12m-17.82-9.3l-4.38-2.15-9.9-4.32-9.02-3.5-11.3-4.4-2.5-1.1m-18.1-8.77l-1.83-1-5.7-3.4-5.33-3.5-5.14-3.7-5.16-4.03-5.4-4.62-3.75-3.5m-14.03-14.4l-7.98-8.8-18.72-21.28m-13.3-15.1l-26.55-30.2m-13.28-15.1l-13.28-15.1M1678.67 1020l2.28-1.95" stroke="#ff8f80" stroke-width="4" fill="none"/><path d="M372.67 1000.67l12.9 7.65-6.96 6.12z" stroke="#ff8f80" stroke-width="4" fill="#ff8f80"/><path d="M1740 857.33l-30.47-25.14-39.4-29.84-52.7-36.52-75.42-47.66-170-96.85-6.62-3.47-7.1-3.36-7.65-3.22-8.3-3.1-9.02-2.95-9.9-2.77-10.95-2.6-12.2-2.33-13.78-2.05-15.74-1.67-18.3-1.16-21.8-.48-27.07.54L1167 595l-167.66 17.5-5.34.17-21.5.03-171-5.97-23.8 1.06-18.9 1.64-15.66 2.02-13.36 2.3-11.6 2.5-10.22 2.67-9.1 2.78-8.2 2.9-7.44 2.96-6.78 3.05-6.24 3.13-5.76 3.2-5.34 3.26-1.77 1.14-5.9 4.08-5.84 4.4-5.78 4.74-5.76 5.16-5.82 5.67-5.94 6.28-6.15 7.1-6.5 8.14-7.06 9.7-8.12 12.13-10.46 17.22-52.55 93.28-9.28 13.9-8.34 11.42-7.83 9.82-7.57 8.72-7.45 7.9-7.42 7.22-7.5 6.7L470 890M1740 857.33l2.3 1.9" stroke="#ff8f80" stroke-width="4" fill="none"/><path d="M470 890l7.8-12.82 6.04 7.03z" stroke="#ff8f80" stroke-width="4" fill="#ff8f80"/><path d="M2031.5 585.48H1937" stroke="#ff8f80" stroke-width="4" fill="none"/><path d="M1937 585.48l14.27-4.63v9.27z" stroke="#ff8f80" stroke-width="4" fill="#ff8f80"/><path d="M2031.5 555.48h125.98v60H2031.5z" fill="none"/><use xlink:href="#p" transform="matrix(1,0,0,1,2036.4960629921256,560.4803149606296) translate(18.049999999999997 28.6)"/><use xlink:href="#m" transform="matrix(1,0,0,1,2036.4960629921256,560.4803149606296) translate(77 28.6)"/><path d="M2055.12 643h-126" fill="none"/><path d="M2055.12 643h-21m-21 0h-42m-21 0h-21" stroke="#ff8f80" stroke-width="4" fill="none"/><path d="M1929.13 643l14.27-4.64v9.28z" stroke="#ff8f80" stroke-width="4" fill="#ff8f80"/><path d="M2055.12 613h79.03v60h-79.03z" fill="none"/><use xlink:href="#q" transform="matrix(1,0,0,1,2060.11811023622,618) translate(5.524999999999999 28.6)"/><path d="M464.67 920.66l12.7-10.53 11.66-10.52 10.92-10.7 10.6-11.35 11.1-12.9 15.87-20.2L557.87 818l5.5-6.42 4.3-4.58 3.7-3.63 3.36-3.04 3.17-2.63 3.05-2.33 3-2.1 3-1.9 3.03-1.75 3.1-1.63 3.2-1.52 3.33-1.4 3.53-1.32 3.76-1.23 4.05-1.13 4.42-1.04 4.9-.94 5.46-.82 6.23-.66 7.23-.46 8.54-.18 4.26.03 3.4.13 3.34.27 3.34.4 3.35.56 3.38.7 3.43.86 3.5 1.04 3.56 1.23 3.7 1.45 3.84 1.7 4.05 1.98 4.3 2.35 4.63 2.8 5.08 3.34 5.7 4.12 6.66 5.23 8.26 7.08 12.2 11.4 49.3 48.44 9.43 8.1 7.82 6.16 6.87 4.95 6.25 4.12 5.8 3.5 5.48 2.98 5.23 2.57 5.07 2.23 4.92 1.93 4.82 1.66 4.76 1.42 4.74 1.2.45.1 10.6 2.15 12.7 2.03 15.84 1.86 20.9 1.55 31.1 1 242.15-.9 24.05 1.62 40.45 2.42 33.6.57 32.04-.8 41.75-2.88 121.38-10 54.43-1.32h5.67" stroke="#ce6925" stroke-width="4" fill="none"/><path d="M464.67 920.66L472.7 908l5.9 7.13z" stroke="#ce6925" stroke-width="4" fill="#ce6925"/><path d="M1545.33 910.67l3-.05" stroke="#ce6925" stroke-width="4" fill="none"/><path d="M462 950l9.45 13 11.45 14.45 13.45 15.6 15.12 16.1 16.08 15.75 16.07 14.5 15.17 12.56 13.65 10.38 11.88 8.28 10.14 6.45 8.58 4.97 7.23 3.8 6.13 2.88 5.2 2.2 4.47 1.66 3.85 1.25 3.35.94 2.94.7 2.6.5 2.3.33 2.07.22 1.86.1 1.68.05h.63l1-.04 1-.08 1.04-.13 1.06-.17 1.1-.23 1.13-.28 1.2-.36 1.23-.42 1.32-.52 1.4-.62 1.52-.74 1.65-.9 1.8-1.08 2.02-1.33 2.3-1.66 2.66-2.08 3.2-2.75 4.08-3.8 5.76-5.84 12.92-14.36 26.36-29.62 9.73-9.85 7.94-7.4 7-5.98 6.38-5.02 5.96-4.3 5.66-3.7 5.4-3.24 5.23-2.85 5.08-2.48 5-2.2 4.9-1.92 4.88-1.67 4.86-1.44 4.86-1.23 4.88-1 4.94-.82 5-.6 5.1-.4 5.2-.2.9-.02 714.67-10.66" fill="none"/><path d="M462 950l9.45 13 2.3 2.9m12.43 15.35l10.17 11.8 15.12 16.1 1.34 1.3m14.13 13.84l.62.6 16.07 14.5 13.1 10.85m15.67 12.05l.05.04 11.88 8.28 10.14 6.45 8.58 4.97 2.7 1.4m17.95 8.25l2.37.88 3.85 1.25 3.35.94 2.94.7 2.6.5 2.3.33 2.07.22 1.86.1 1.68.05h.63l1-.04 1-.08 1.04-.13 1.06-.17 1.1-.23 1.13-.28 1.2-.36 1.23-.42 1.32-.52 1.4-.62 1.52-.74 1.43-.78m15.54-12.13l.76-.7 5.76-5.84 12.92-14.36 7.3-8.2m13.14-14.77l5.92-6.65 9.73-9.85 7.94-7.4 4.5-3.85m15.7-12l4.8-3.15 5.4-3.24 5.22-2.85 5.08-2.48 5-2.2 4.9-1.92 4.87-1.66m19.24-4.44l.3-.05 5-.6 5.1-.4 5.2-.2.9-.02 22.96-.34m19.76-.3l39.53-.6m19.76-.3l39.54-.58m19.76-.3l39.53-.58m19.76-.3l39.52-.6m19.76-.28l39.53-.6m19.77-.3l39.53-.58m19.76-.3l39.52-.58m19.77-.3l39.52-.6m19.77-.28l39.52-.6m19.77-.3l39.52-.58m19.76-.3l39.54-.58m19.76-.3l19.77-.3" stroke="#ce6925" stroke-width="4" fill="none"/><path d="M462 950l12.14 8.82-7.5 5.45z" stroke="#ce6925" stroke-width="4" fill="#ce6925"/><path d="M1546.67 962.67l3-.05M1937 692.9l110.74 2.1" stroke="#ce6925" stroke-width="4" fill="none"/><path d="M1937 692.9l14.36-4.35-.18 9.27z" stroke="#ce6925" stroke-width="4" fill="#ce6925"/><path d="M2047.74 697h-.04l.04-2z" fill="#ce6925"/><path d="M1944.88 748.03l105.6 6.1" fill="none"/><path d="M1944.88 748.03l17.6 1.02m17.6 1l35.2 2.04m17.6 1l17.6 1.03" stroke="#ce6925" stroke-width="4" fill="none"/><path d="M1944.88 748.03l14.5-3.8-.52 9.25z" stroke="#ce6925" stroke-width="4" fill="#ce6925"/><path d="M2050.48 756.13h-.1l.1-2z" fill="#ce6925"/><path d="M2047.74 665h79.03v60h-79.03z" fill="none"/><use xlink:href="#r" transform="matrix(1,0,0,1,2052.740157480315,670) translate(0.5499999999999972 28.6)"/><use xlink:href="#m" transform="matrix(1,0,0,1,2052.740157480315,670) translate(48.5 28.6)"/><path d="M2050.48 725h79.04v60h-79.04z" fill="none"/><use xlink:href="#s" transform="matrix(1,0,0,1,2055.484251968504,730) translate(11.024999999999999 28.6)"/><path d="M501.34 912l102.08 2.86 155.77-1.58 125.4-6.4 87.94-8.18 61.4-8.32 43.9-7.84 32.27-7.17 24.35-6.5 18.8-5.87 14.8-5.3 11.87-4.84 9.66-4.4 7.97-4.07 6.65-3.75 5.6-3.47 4.8-3.24 4.08-3.04 3.54-2.86 3.08-2.7 2.7-2.6 2.35-2.45 2.1-2.37 1.83-2.27 1.63-2.2.1-.13 4.33-5.85 4.42-5.5 4.52-5.14 4.62-4.84 4.72-4.56 4.84-4.28 4.96-4.03 5.07-3.8 5.2-3.55 5.34-3.33 5.5-3.1 5.63-2.9 5.8-2.66 5.97-2.47 6.15-2.22 6.32-2 6.52-1.76 6.7-1.5 6.92-1.27 7.1-1 7.3-.7 7.45-.4 7.63-.1 7.75.23 7.85.56 7.9.9 7.93 1.23 7.86 1.56 7.76 1.9 7.57 2.17 7.34 2.45 7.02 2.68 6.7 2.87 6.27 3.02 5.85 3.13 5.42 3.18 4.97 3.22 4.53 3.2 4.1 3.17 3.72 3.12.4.36 12.75 12 10.97 11.6 9.64 11.53 8.9 12.02 10.93 16.94 7.68 12.26 1.72 2.34 1.15 1.38.87.93.72.67.62.52.54.4.5.32.45.26.43.2.4.18.4.14.38.1.38.1.38.06.38.04H1550.67" stroke="#7ab648" stroke-width="4" fill="none"/><path d="M501.34 912l14.4-4.23-.27 9.26z" stroke="#7ab648" stroke-width="4" fill="#7ab648"/><path d="M1550.67 869.33l2.27 1.97" stroke="#7ab648" stroke-width="4" fill="none"/><path d="M517.34 984l611.24 3.6 36.72 2.57 16.1 1.8 8.52 1.34 5.1 1.03 3.27.8 2.23.64 1.6.54 1.2.46.9.4.7.33.54.3.45.25.37.24.3.2.25.2.2.18.2.17.15.16.14.15.1.14.12.12.08.13.08.12.07.1v.03l21.84 38.7 6.92 9.7 7.62 9.06 7.62 7.87 1.03.97 1.2 1.02 1.4 1.1 1.64 1.2 1.96 1.28 2.34 1.4 2.84 1.56 3.5 1.72 4.33 1.9 5.47 2.15 7.02 2.42 9.17 2.73 12.13 3.07 16.2 3.38 20.97 3.47 23.33 2.9 12.14 1.07 2.84.14 3.26.04 3.73-.12 4.3-.33 5.02-.6 5.8-.93 6.76-1.37 7.78-1.92 8.9-2.6 9.96-3.37 10.9-4.2 11.5-5 11.7-5.67 11.44-6.14 10.75-6.38 9.8-6.37 8.67-6.17 7.56-5.88 6.5-5.5 5.57-5.13 4.73-4.73 4.02-4.37 3.4-4.04 2.9-3.73 2.44-3.46 2.07-3.2 1.77-3 1.5-2.8 1.27-2.63 1.08-2.47.9-2.35.75-2.23.44-1.48" fill="none"/><path d="M517.34 984l19.72.12m19.72.1l39.45.25m19.72.1l39.44.25m19.7.1l39.46.24m19.72.12l39.44.23m19.72.13l39.44.23m19.73.12l39.45.23m19.72.13l39.44.23m19.73.12l39.45.23m19.72.13l39.44.23m19.72.12l39.32.23.12.02m19.68 1.37l16.92 1.17 16.1 1.8 6.2.98m18.83 5.44l.16.1.25.2.2.18.2.17.15.16.14.15.1.14.12.12.08.13.08.12.07.1v.03l18.27 32.38m10.85 16.43l7.26 8.66 7.62 7.87 1.03.97 1.2 1.02 1.4 1.1 1.64 1.2 1.96 1.28 2.34 1.4 2.84 1.56 1.88.92m18.33 7.23l.12.05 9.17 2.73 12.13 3.07 16.2 3.38.68.1m19.47 3.23l.83.14 23.33 2.9 12.14 1.07 2.84.14h.07m19.63-1.54l2.43-.4 6.75-1.36 7.78-1.92 8.9-2.6 9.96-3.37 2.14-.82m18.24-7.5l2.02-.87 11.7-5.67 11.44-6.14 9.68-5.75m16.4-10.94l3.13-2.22 7.56-5.88 6.5-5.5 5.57-5.13 4.73-4.73 2.2-2.4m12.08-15.54l.57-.87 1.77-3 1.5-2.8 1.27-2.62 1.08-2.47.9-2.35.75-2.23.44-1.48" stroke="#7ab648" stroke-width="4" fill="none"/><path d="M517.34 984l14.3-4.55-.06 9.27z" stroke="#7ab648" stroke-width="4" fill="#7ab648"/><path d="M1558.67 990.67l1.16-2.77" stroke="#7ab648" stroke-width="4" fill="none"/><path d="M1944.88 850.4L2054 849" fill="none"/><path d="M1944.88 850.4l18.2-.24m18.17-.23l36.38-.47m18.18-.23l18.2-.23" stroke="#7ab648" stroke-width="4" fill="none"/><path d="M1944.88 850.4l14.2-4.82.13 9.27z" stroke="#7ab648" stroke-width="4" fill="#7ab648"/><path d="M2054 849l-.03-2h.03z" fill="#7ab648"/><path d="M1952.76 803.15l101.72 1.37" stroke="#7ab648" stroke-width="4" fill="none"/><path d="M1952.76 803.15l14.32-4.44-.12 9.28z" stroke="#7ab648" stroke-width="4" fill="#7ab648"/><path d="M2054.48 806.52h-.02l.02-2z" fill="#7ab648"/><path d="M2054.48 774.52H2157v60h-102.52z" fill="none"/><use xlink:href="#t" transform="matrix(1,0,0,1,2059.484251968504,779.5196850393704) translate(7.100000000000001 28.6)"/><use xlink:href="#m" transform="matrix(1,0,0,1,2059.484251968504,779.5196850393704) translate(64.95 28.6)"/><path d="M2054 819h87.73v60H2054z" fill="none"/><use xlink:href="#u" transform="matrix(1,0,0,1,2059,824) translate(10.075 28.6)"/><path d="M1058.67 846.67h67.3V725.33H1376M1058.67 846.67h-3M1376 725.33h3" stroke="#3aa6dd" stroke-width="4" fill="none"/><path d="M1354.67 1132h135.27V998.4h135.27" fill="none"/><path d="M1354.67 1132h19.24m19.25 0h38.5m19.24 0h38.48m.56-18.68v-38.5m0-19.23v-38.5m.56-18.7h38.5m19.23 0h38.5m19.23 0h19.25M1354.67 1132h-3M1625.2 998.4h3M1378.67 725.33h127.68v125.9h127.7M1378.67 725.33h-3M1634.04 851.24h3M701.33 733.33h179.53v114.24h179.52M701.33 733.33h-3M1060.38 847.57h3" stroke="#3aa6dd" stroke-width="4" fill="none"/><path d="M392 842.67V732h313.33M392 842.67v3M705.33 732h3M1960.63 897.64h44.68v-1.5h44.7" stroke="#3aa6dd" stroke-width="4" fill="none"/><path d="M2050 866.14h115v60h-115z" fill="none"/><use xlink:href="#v" transform="matrix(1,0,0,1,2055,871.1417322834645) translate(5.574999999999996 28.6)"/><use xlink:href="#m" transform="matrix(1,0,0,1,2055,871.1417322834645) translate(78.475 28.6)"/><path d="M445.33 989.33h11.36v117.08h292.5" fill="none"/><path d="M445.33 989.33h11.36v8.7m0 20.03v40.1m0 20.04v28.2h11.87m20.05 0h40.1m20.03 0h40.1m20.04 0h40.08m20.05 0h40.1m20.03 0h20.05M445.33 989.33l-2.85-.9M749.2 1106.4h3" stroke="#3aa6dd" stroke-width="4" fill="none"/><path d="M746.67 1105.33h131.27v-96.25h131.27" fill="none"/><path d="M746.67 1105.33h19.93m19.93 0h39.87m19.93 0h31.6v-8.26m0-19.93v-39.87m0-19.93v-8.26h31.6m19.95 0h39.86m19.93 0h19.94M746.67 1105.33h-3M1009.2 1009.08h3" stroke="#3aa6dd" stroke-width="4" fill="none"/><path d="M1010.67 1009.33h169.93v122.42h169.94" fill="none"/><path d="M1010.67 1009.33h19.26m19.26 0h38.5m19.28 0h38.52m19.26 0h15.84v22.7m0 19.25v38.52m0 19.26v22.7h15.84m19.27 0h38.53m19.26 0H1312m19.26 0h19.26M1010.67 1009.33h-3M1350.54 1131.75h3" stroke="#3aa6dd" stroke-width="4" fill="none"/><path d="M1960.63 957.5h44.68V956h44.7" fill="none"/><path d="M1960.63 957.5h15.14m15.15 0h14.4V956h14.4m15.14 0H2050" stroke="#3aa6dd" stroke-width="4" fill="none"/><path d="M2050 926h115v60h-115z" fill="none"/><use xlink:href="#w" transform="matrix(1,0,0,1,2055,931) translate(16.049999999999997 28.6)"/><path d="M1952.76 1015.75h53.87v.25h53.87M1033.33 680.67h454.86v194.9h117.84M1033.33 680.67h-3M1606.04 875.57h3M1028.67 1150l-1.34-473.33M1028.67 1150v3M1027.33 676.67v-3M436 1007.33h4.94v142.9h587.76M436 1007.33l-1.32-2.7M1028.7 1150.24h3" stroke="#0c7cba" stroke-width="4" fill="none"/><path d="M968 1215.33h528.06v-199.76h143.3" fill="none"/><path d="M968 1215.33h19.36m19.36 0h38.7m19.37 0h38.7m19.37 0h38.72m19.34 0h38.72m19.36 0h38.72m19.36 0h38.7m19.37 0h38.72m19.35 0h38.7m19.37 0h24.74v-13.97m0-19.36v-38.72m0-19.36v-38.7m0-19.37v-38.72m7.8-11.56h38.72m19.36 0h38.7m19.37 0h19.37M968 1215.33h-3M1639.37 1015.57h3" stroke="#0c7cba" stroke-width="4" fill="none"/><path d="M2060.5 986h115v60h-115z" fill="none"/><use xlink:href="#x" transform="matrix(1,0,0,1,2065.5,991) translate(21.074999999999996 28.6)"/><path d="M961.33 692v261h1.34v261" fill="none"/><path d="M961.33 692v19.38m0 19.4v38.75m0 19.38v38.78m0 19.38v38.77m0 19.38V944m1.34 18.04v38.77m0 19.37v38.77m0 19.38v38.77m0 19.37v38.76m0 19.4V1214M961.33 692v-3M962.67 1214v3" stroke="#0c7cba" stroke-width="4" fill="none"/><path d="M343.33 834V695.33h611.34" fill="none"/><path d="M343.33 834v-20.83m0-20.84v-41.66m0-20.84v-34.5h7.17m20.83 0H413m20.83 0h41.67m20.83 0H538m20.83 0h41.67m20.83 0H663m20.83 0h41.67m20.83 0H788m20.83 0h41.67m20.83 0H913m20.83 0h20.84M343.33 834v3M954.67 695.33h3" stroke="#0c7cba" stroke-width="4" fill="none"/><path d="M1968.5 1070.87h46.25V1069H2061" fill="none"/><path d="M1968.5 1070.87h15.73m15.73 0h14.8V1069h14.8m15.7 0H2061" stroke="#0c7cba" stroke-width="4" fill="none"/><path d="M2061 1039h115v60h-115z" fill="none"/><use xlink:href="#y" transform="matrix(1,0,0,1,2066,1044) translate(10.599999999999994 28.6)"/><use xlink:href="#m" transform="matrix(1,0,0,1,2066,1044) translate(73.45 28.6)"/><g opacity=".9"><path d="M898.28 1039.37H1166V818.9H898.28z" stroke="#000" stroke-width="2" fill="#ffdf71"/><use xlink:href="#z" transform="matrix(1,0,0,1,903.283,823.8976377952755) translate(31.370370370370367 89.23333333333335)"/><use xlink:href="#A" transform="matrix(1,0,0,1,903.283,823.8976377952755) translate(127.44444444444444 89.23333333333335)"/><use xlink:href="#B" transform="matrix(1,0,0,1,903.283,823.8976377952755) translate(9.224999999999994 114.30000000000001)"/><use xlink:href="#C" transform="matrix(1,0,0,1,903.283,823.8976377952755) translate(52.175 114.30000000000001)"/><use xlink:href="#D" transform="matrix(1,0,0,1,903.283,823.8976377952755) translate(80.125 114.30000000000001)"/><use xlink:href="#E" transform="matrix(1,0,0,1,903.283,823.8976377952755) translate(153.975 114.30000000000001)"/><use xlink:href="#F" transform="matrix(1,0,0,1,903.283,823.8976377952755) translate(200.825 114.30000000000001)"/><use xlink:href="#G" transform="matrix(1,0,0,1,903.283,823.8976377952755) translate(81.1 135.9)"/><use xlink:href="#H" transform="matrix(1,0,0,1,903.283,823.8976377952755) translate(112.05 135.9)"/><use xlink:href="#I" transform="matrix(1,0,0,1,903.283,823.8976377952755) translate(143.95 135.9)"/></g><g opacity=".9"><path d="M1203.28 805.47H1471V585h-267.72z" stroke="#000" stroke-width="2" fill="#fff"/><use xlink:href="#J" transform="matrix(1,0,0,1,1208.283,590) translate(26.851851851851848 89.23333333333335)"/><use xlink:href="#A" transform="matrix(1,0,0,1,1208.283,590) translate(131.96296296296293 89.23333333333335)"/><use xlink:href="#B" transform="matrix(1,0,0,1,1208.283,590) translate(15.775000000000006 114.30000000000001)"/><use xlink:href="#C" transform="matrix(1,0,0,1,1208.283,590) translate(58.72500000000001 114.30000000000001)"/><use xlink:href="#K" transform="matrix(1,0,0,1,1208.283,590) translate(86.67500000000001 114.30000000000001)"/><use xlink:href="#E" transform="matrix(1,0,0,1,1208.283,590) translate(116.47500000000001 114.30000000000001)"/><use xlink:href="#L" transform="matrix(1,0,0,1,1208.283,590) translate(163.32500000000002 114.30000000000001)"/><use xlink:href="#M" transform="matrix(1,0,0,1,1208.283,590) translate(216.275 114.30000000000001)"/><use xlink:href="#H" transform="matrix(1,0,0,1,1208.283,590) translate(96.575 135.9)"/><use xlink:href="#I" transform="matrix(1,0,0,1,1208.283,590) translate(128.475 135.9)"/></g><path d="M1523.28 1039H1791V818.53h-267.72z" stroke="#000" stroke-width="2" fill="#fff"/><g><use xlink:href="#J" transform="matrix(1,0,0,1,1528.283,823.528) translate(10.629629629629619 89.23333333333335)"/><use xlink:href="#N" transform="matrix(1,0,0,1,1528.283,823.528) translate(115.74074074074072 89.23333333333335)"/><use xlink:href="#B" transform="matrix(1,0,0,1,1528.283,823.528) translate(3.8499999999999943 114.30000000000001)"/><use xlink:href="#C" transform="matrix(1,0,0,1,1528.283,823.528) translate(46.8 114.30000000000001)"/><use xlink:href="#K" transform="matrix(1,0,0,1,1528.283,823.528) translate(74.75 114.30000000000001)"/><use xlink:href="#E" transform="matrix(1,0,0,1,1528.283,823.528) translate(104.55 114.30000000000001)"/><use xlink:href="#L" transform="matrix(1,0,0,1,1528.283,823.528) translate(151.4 114.30000000000001)"/><use xlink:href="#K" transform="matrix(1,0,0,1,1528.283,823.528) translate(204.35 114.30000000000001)"/><use xlink:href="#O" transform="matrix(1,0,0,1,1528.283,823.528) translate(234.15 114.30000000000001)"/><use xlink:href="#P" transform="matrix(1,0,0,1,1528.283,823.528) translate(115.55 135.9)"/></g><g opacity=".9"><path d="M594.28 805.47H862V585H594.28z" stroke="#000" stroke-width="2" fill="#fff"/><use xlink:href="#z" transform="matrix(1,0,0,1,599.283,590) translate(39.59259259259258 89.23333333333335)"/><use xlink:href="#Q" transform="matrix(1,0,0,1,599.283,590) translate(135.66666666666666 89.23333333333335)"/><use xlink:href="#B" transform="matrix(1,0,0,1,599.283,590) translate(9.224999999999994 114.30000000000001)"/><use xlink:href="#C" transform="matrix(1,0,0,1,599.283,590) translate(52.175 114.30000000000001)"/><use xlink:href="#D" transform="matrix(1,0,0,1,599.283,590) translate(80.125 114.30000000000001)"/><use xlink:href="#E" transform="matrix(1,0,0,1,599.283,590) translate(153.975 114.30000000000001)"/><use xlink:href="#F" transform="matrix(1,0,0,1,599.283,590) translate(200.825 114.30000000000001)"/><use xlink:href="#R" transform="matrix(1,0,0,1,599.283,590) translate(71.05 135.9)"/><use xlink:href="#S" transform="matrix(1,0,0,1,599.283,590) translate(115.05 135.9)"/><use xlink:href="#T" transform="matrix(1,0,0,1,599.283,590) translate(135.05 135.9)"/><use xlink:href="#P" transform="matrix(1,0,0,1,599.283,590) translate(160.05 135.9)"/></g><path d="M283.46 1023.96h267.72V803.5H283.46z" stroke="#000" stroke-width="2" fill="#fff"/><g><use xlink:href="#U" transform="matrix(1,0,0,1,288.4645669291338,808.4886299212598) translate(42.44444444444443 89.23333333333335)"/><use xlink:href="#V" transform="matrix(1,0,0,1,288.4645669291338,808.4886299212598) translate(132.81481481481478 89.23333333333335)"/><use xlink:href="#W" transform="matrix(1,0,0,1,288.4645669291338,808.4886299212598) translate(11.650000000000006 114.30000000000001)"/><use xlink:href="#X" transform="matrix(1,0,0,1,288.4645669291338,808.4886299212598) translate(16.650000000000006 114.30000000000001)"/><use xlink:href="#C" transform="matrix(1,0,0,1,288.4645669291338,808.4886299212598) translate(59.60000000000001 114.30000000000001)"/><use xlink:href="#R" transform="matrix(1,0,0,1,288.4645669291338,808.4886299212598) translate(87.55000000000001 114.30000000000001)"/><use xlink:href="#S" transform="matrix(1,0,0,1,288.4645669291338,808.4886299212598) translate(131.55 114.30000000000001)"/><use xlink:href="#E" transform="matrix(1,0,0,1,288.4645669291338,808.4886299212598) translate(151.55 114.30000000000001)"/><use xlink:href="#F" transform="matrix(1,0,0,1,288.4645669291338,808.4886299212598) translate(198.4 114.30000000000001)"/><use xlink:href="#R" transform="matrix(1,0,0,1,288.4645669291338,808.4886299212598) translate(71.05 135.9)"/><use xlink:href="#S" transform="matrix(1,0,0,1,288.4645669291338,808.4886299212598) translate(115.05 135.9)"/><use xlink:href="#T" transform="matrix(1,0,0,1,288.4645669291338,808.4886299212598) translate(135.05 135.9)"/><use xlink:href="#P" transform="matrix(1,0,0,1,288.4645669291338,808.4886299212598) translate(160.05 135.9)"/></g><g opacity=".9"><path d="M594.28 1275.6H862V1055.1H594.28z" stroke="#000" stroke-width="2" fill="#fff"/><use xlink:href="#U" transform="matrix(1,0,0,1,599.283,1060.1181102362204) translate(34.22222222222223 89.23333333333335)"/><use xlink:href="#A" transform="matrix(1,0,0,1,599.283,1060.1181102362204) translate(124.5925925925926 89.23333333333335)"/><use xlink:href="#B" transform="matrix(1,0,0,1,599.283,1060.1181102362204) translate(14.150000000000006 114.30000000000001)"/><use xlink:href="#C" transform="matrix(1,0,0,1,599.283,1060.1181102362204) translate(57.10000000000001 114.30000000000001)"/><use xlink:href="#R" transform="matrix(1,0,0,1,599.283,1060.1181102362204) translate(85.05000000000001 114.30000000000001)"/><use xlink:href="#S" transform="matrix(1,0,0,1,599.283,1060.1181102362204) translate(129.05 114.30000000000001)"/><use xlink:href="#E" transform="matrix(1,0,0,1,599.283,1060.1181102362204) translate(149.05 114.30000000000001)"/><use xlink:href="#F" transform="matrix(1,0,0,1,599.283,1060.1181102362204) translate(195.9 114.30000000000001)"/><use xlink:href="#G" transform="matrix(1,0,0,1,599.283,1060.1181102362204) translate(81.1 135.9)"/><use xlink:href="#H" transform="matrix(1,0,0,1,599.283,1060.1181102362204) translate(112.05 135.9)"/><use xlink:href="#I" transform="matrix(1,0,0,1,599.283,1060.1181102362204) translate(143.95 135.9)"/></g><g opacity=".9"><path d="M1203 1276h267.72v-220.47H1203z" stroke="#000" stroke-width="2" fill="#fff"/><use xlink:href="#z" transform="matrix(1,0,0,1,1208,1060.528) translate(15.148148148148138 89.23333333333335)"/><use xlink:href="#N" transform="matrix(1,0,0,1,1208,1060.528) translate(111.22222222222221 89.23333333333335)"/><use xlink:href="#B" transform="matrix(1,0,0,1,1208,1060.528) translate(9.224999999999994 114.30000000000001)"/><use xlink:href="#C" transform="matrix(1,0,0,1,1208,1060.528) translate(52.175 114.30000000000001)"/><use xlink:href="#D" transform="matrix(1,0,0,1,1208,1060.528) translate(80.125 114.30000000000001)"/><use xlink:href="#E" transform="matrix(1,0,0,1,1208,1060.528) translate(153.975 114.30000000000001)"/><use xlink:href="#F" transform="matrix(1,0,0,1,1208,1060.528) translate(200.825 114.30000000000001)"/><use xlink:href="#K" transform="matrix(1,0,0,1,1208,1060.528) translate(88.15 135.9)"/><use xlink:href="#T" transform="matrix(1,0,0,1,1208,1060.528) translate(117.95 135.9)"/><use xlink:href="#P" transform="matrix(1,0,0,1,1208,1060.528) translate(142.95 135.9)"/></g><g opacity=".9"><path d="M881.14 530.5h267.72V310.03H881.14z" stroke="#000" stroke-width="2" fill="#fff"/><use xlink:href="#J" transform="matrix(1,0,0,1,886.1415,315.031716535433) translate(35.074074074074076 89.23333333333335)"/><use xlink:href="#Q" transform="matrix(1,0,0,1,886.1415,315.031716535433) translate(140.18518518518516 89.23333333333335)"/><use xlink:href="#B" transform="matrix(1,0,0,1,886.1415,315.031716535433) translate(9.25 114.30000000000001)"/><use xlink:href="#C" transform="matrix(1,0,0,1,886.1415,315.031716535433) translate(52.2 114.30000000000001)"/><use xlink:href="#K" transform="matrix(1,0,0,1,886.1415,315.031716535433) translate(80.15 114.30000000000001)"/><use xlink:href="#E" transform="matrix(1,0,0,1,886.1415,315.031716535433) translate(109.95 114.30000000000001)"/><use xlink:href="#L" transform="matrix(1,0,0,1,886.1415,315.031716535433) translate(156.8 114.30000000000001)"/><use xlink:href="#Y" transform="matrix(1,0,0,1,886.1415,315.031716535433) translate(209.75 114.30000000000001)"/><use xlink:href="#S" transform="matrix(1,0,0,1,886.1415,315.031716535433) translate(93.05 135.9)"/><use xlink:href="#T" transform="matrix(1,0,0,1,886.1415,315.031716535433) translate(113.05 135.9)"/><use xlink:href="#P" transform="matrix(1,0,0,1,886.1415,315.031716535433) translate(138.05 135.9)"/></g><g opacity=".9"><path d="M905.14 1578.3h267.72V1357.8H905.14z" stroke="#000" stroke-width="2" fill="#fff"/><use xlink:href="#Z" transform="matrix(1,0,0,1,910.1415,1362.816973867716) translate(14.29629629629629 89.23333333333335)"/><use xlink:href="#N" transform="matrix(1,0,0,1,910.1415,1362.816973867716) translate(112.07407407407406 89.23333333333335)"/><use xlink:href="#B" transform="matrix(1,0,0,1,910.1415,1362.816973867716) translate(14.150000000000006 114.30000000000001)"/><use xlink:href="#C" transform="matrix(1,0,0,1,910.1415,1362.816973867716) translate(57.10000000000001 114.30000000000001)"/><use xlink:href="#R" transform="matrix(1,0,0,1,910.1415,1362.816973867716) translate(85.05000000000001 114.30000000000001)"/><use xlink:href="#S" transform="matrix(1,0,0,1,910.1415,1362.816973867716) translate(129.05 114.30000000000001)"/><use xlink:href="#E" transform="matrix(1,0,0,1,910.1415,1362.816973867716) translate(149.05 114.30000000000001)"/><use xlink:href="#F" transform="matrix(1,0,0,1,910.1415,1362.816973867716) translate(195.9 114.30000000000001)"/><use xlink:href="#K" transform="matrix(1,0,0,1,910.1415,1362.816973867716) translate(88.15 135.9)"/><use xlink:href="#T" transform="matrix(1,0,0,1,910.1415,1362.816973867716) translate(117.95 135.9)"/><use xlink:href="#P" transform="matrix(1,0,0,1,910.1415,1362.816973867716) translate(142.95 135.9)"/></g><defs><path d="M24-248c93 1 206-16 204 79-1 75-69 88-152 82V0H24v-248zm52 121c47 0 100 7 100-41 0-47-54-39-100-39v80" id="aa"/><path d="M133-34C117-15 103 5 69 4 32 3 11-16 11-54c-1-60 55-63 116-61 1-26-3-47-28-47-18 1-26 9-28 27l-52-2c7-38 36-58 82-57s74 22 75 68l1 82c-1 14 12 18 25 15v27c-30 8-71 5-69-32zm-48 3c29 0 43-24 42-57-32 0-66-3-65 30 0 17 8 27 23 27" id="ab"/><path d="M137-138c1-29-70-34-71-4 15 46 118 7 119 86 1 83-164 76-172 9l43-7c4 19 20 25 44 25 33 8 57-30 24-41C81-84 22-81 20-136c-2-80 154-74 161-7" id="ac"/><path d="M115-3C79 11 28 4 28-45v-112H4v-33h27l15-45h31v45h36v33H77v99c-1 23 16 31 38 25v30" id="ad"/><g id="a"><use transform="matrix(0.05,0,0,0.05,0,0)" xlink:href="#aa"/><use transform="matrix(0.05,0,0,0.05,12,0)" xlink:href="#ab"/><use transform="matrix(0.05,0,0,0.05,22,0)" xlink:href="#ac"/><use transform="matrix(0.05,0,0,0.05,32,0)" xlink:href="#ad"/></g><path d="M76-208v77h127v40H76V0H24v-248h183v40H76" id="ae"/><path d="M85 4C-2 5 27-109 22-190h50c7 57-23 150 33 157 60-5 35-97 40-157h50l1 190h-47c-2-12 1-28-3-38-12 25-28 42-61 42" id="af"/><path d="M135-150c-39-12-60 13-60 57V0H25l-1-190h47c2 13-1 29 3 40 6-28 27-53 61-41v41" id="ag"/><path d="M185-48c-13 30-37 53-82 52C43 2 14-33 14-96s30-98 90-98c62 0 83 45 84 108H66c0 31 8 55 39 56 18 0 30-7 34-22zm-45-69c5-46-57-63-70-21-2 6-4 13-4 21h74" id="ah"/><g id="b"><use transform="matrix(0.05,0,0,0.05,0,0)" xlink:href="#ae"/><use transform="matrix(0.05,0,0,0.05,10.950000000000001,0)" xlink:href="#af"/><use transform="matrix(0.05,0,0,0.05,21.900000000000002,0)" xlink:href="#ad"/><use transform="matrix(0.05,0,0,0.05,27.85,0)" xlink:href="#af"/><use transform="matrix(0.05,0,0,0.05,38.800000000000004,0)" xlink:href="#ag"/><use transform="matrix(0.05,0,0,0.05,45.800000000000004,0)" xlink:href="#ah"/></g><linearGradient gradientUnits="userSpaceOnUse" id="c" x1="582.34" y1="551" x2="1496" y2="551"><stop offset=".56%" stop-color="#ef8d22"/><stop offset="99.44%" stop-color="#5abaa7"/></linearGradient><g id="d"><use transform="matrix(0.05,0,0,0.05,0,0)" xlink:href="#ae"/><use transform="matrix(0.05,0,0,0.05,10.950000000000001,0)" xlink:href="#af"/><use transform="matrix(0.05,0,0,0.05,21.900000000000002,0)" xlink:href="#ad"/><use transform="matrix(0.05,0,0,0.05,27.85,0)" xlink:href="#af"/><use transform="matrix(0.05,0,0,0.05,38.800000000000004,0)" xlink:href="#ag"/><use transform="matrix(0.05,0,0,0.05,45.800000000000004,0)" xlink:href="#ah"/></g><path d="M14-72v-43h91v43H14" id="ai"/><use transform="matrix(0.05,0,0,0.05,0,0)" xlink:href="#ai" id="e"/><g id="f"><use transform="matrix(0.05,0,0,0.05,0,0)" xlink:href="#aa"/><use transform="matrix(0.05,0,0,0.05,12,0)" xlink:href="#ab"/><use transform="matrix(0.05,0,0,0.05,22,0)" xlink:href="#ac"/><use transform="matrix(0.05,0,0,0.05,32,0)" xlink:href="#ad"/></g><radialGradient gradientUnits="userSpaceOnUse" id="g" fx="1039.23" fy="929.13" cx="1039.23" cy="929.13" r="411.15"><stop offset="0%" stop-color="#f4b004"/><stop offset="100%" stop-color="#fff"/></radialGradient><path d="M135-194c87-1 58 113 63 194h-50c-7-57 23-157-34-157-59 0-34 97-39 157H25l-1-190h47c2 12-1 28 3 38 12-26 28-41 61-42" id="aj"/><path d="M110-194c64 0 96 36 96 99 0 64-35 99-97 99-61 0-95-36-95-99 0-62 34-99 96-99zm-1 164c35 0 45-28 45-65 0-40-10-65-43-65-34 0-45 26-45 65 0 36 10 65 43 65" id="ak"/><path d="M231 0h-52l-39-155L100 0H48L-1-190h46L77-45c9-52 24-97 36-145h53l37 145 32-145h46" id="al"/><g id="h"><use transform="matrix(0.05,0,0,0.05,0,0)" xlink:href="#aj"/><use transform="matrix(0.05,0,0,0.05,10.950000000000001,0)" xlink:href="#ak"/><use transform="matrix(0.05,0,0,0.05,21.900000000000002,0)" xlink:href="#al"/></g><linearGradient gradientUnits="userSpaceOnUse" id="i" x1="582" y1="1590.46" x2="1495.66" y2="1590.46"><stop offset=".56%" stop-color="#ef8d22"/><stop offset="99.44%" stop-color="#5abaa7"/></linearGradient><g id="j"><use transform="matrix(0.05,0,0,0.05,0,0)" xlink:href="#aa"/><use transform="matrix(0.05,0,0,0.05,12,0)" xlink:href="#ab"/><use transform="matrix(0.05,0,0,0.05,22,0)" xlink:href="#ac"/><use transform="matrix(0.05,0,0,0.05,32,0)" xlink:href="#ad"/></g><g id="k"><use transform="matrix(0.05,0,0,0.05,0,0)" xlink:href="#ae"/><use transform="matrix(0.05,0,0,0.05,10.950000000000001,0)" xlink:href="#af"/><use transform="matrix(0.05,0,0,0.05,21.900000000000002,0)" xlink:href="#ad"/><use transform="matrix(0.05,0,0,0.05,27.85,0)" xlink:href="#af"/><use transform="matrix(0.05,0,0,0.05,38.800000000000004,0)" xlink:href="#ag"/><use transform="matrix(0.05,0,0,0.05,45.800000000000004,0)" xlink:href="#ah"/></g><path d="M26 75v-336h71v23H56V52h41v23H26" id="am"/><path d="M160-131c35 5 61 23 61 61C221 17 115-2 30 0v-248c76 3 177-17 177 60 0 33-19 50-47 57zm-97-11c50-1 110 9 110-42 0-47-63-36-110-37v79zm0 115c55-2 124 14 124-45 0-56-70-42-124-44v89" id="an"/><path d="M100-194c63 0 86 42 84 106H49c0 40 14 67 53 68 26 1 43-12 49-29l28 8c-11 28-37 45-77 45C44 4 14-33 15-96c1-61 26-98 85-98zm52 81c6-60-76-77-97-28-3 7-6 17-6 28h103" id="ao"/><path d="M101-234c-31-9-42 10-38 44h38v23H63V0H32v-167H5v-23h27c-7-52 17-82 69-68v24" id="ap"/><path d="M100-194c62-1 85 37 85 99 1 63-27 99-86 99S16-35 15-95c0-66 28-99 85-99zM99-20c44 1 53-31 53-75 0-43-8-75-51-75s-53 32-53 75 10 74 51 75" id="aq"/><path d="M114-163C36-179 61-72 57 0H25l-1-190h30c1 12-1 29 2 39 6-27 23-49 58-41v29" id="ar"/><g id="l"><use transform="matrix(0.05,0,0,0.05,0,0)" xlink:href="#am"/><use transform="matrix(0.05,0,0,0.05,5,0)" xlink:href="#an"/><use transform="matrix(0.05,0,0,0.05,17,0)" xlink:href="#ao"/><use transform="matrix(0.05,0,0,0.05,27,0)" xlink:href="#ap"/><use transform="matrix(0.05,0,0,0.05,32,0)" xlink:href="#aq"/><use transform="matrix(0.05,0,0,0.05,42,0)" xlink:href="#ar"/><use transform="matrix(0.05,0,0,0.05,47.95,0)" xlink:href="#ao"/></g><path d="M16-82v-28h88v28H16" id="as"/><path d="M27 0v-27h64v-190l-56 39v-29l58-41h29v221h61V0H27" id="at"/><path d="M3 75V52h41v-290H3v-23h71V75H3" id="au"/><g id="m"><use transform="matrix(0.05,0,0,0.05,0,0)" xlink:href="#as"/><use transform="matrix(0.05,0,0,0.05,5.95,0)" xlink:href="#at"/><use transform="matrix(0.05,0,0,0.05,15.949999999999998,0)" xlink:href="#au"/></g><g id="n"><use transform="matrix(0.05,0,0,0.05,0,0)" xlink:href="#am"/><use transform="matrix(0.05,0,0,0.05,5,0)" xlink:href="#an"/><use transform="matrix(0.05,0,0,0.05,17,0)" xlink:href="#ao"/><use transform="matrix(0.05,0,0,0.05,27,0)" xlink:href="#ap"/><use transform="matrix(0.05,0,0,0.05,32,0)" xlink:href="#aq"/><use transform="matrix(0.05,0,0,0.05,42,0)" xlink:href="#ar"/><use transform="matrix(0.05,0,0,0.05,47.95,0)" xlink:href="#ao"/><use transform="matrix(0.05,0,0,0.05,57.95,0)" xlink:href="#au"/></g><path d="M30 0v-248h187v28H63v79h144v27H63v87h162V0H30" id="av"/><path d="M145-31C134-9 116 4 85 4 32 4 16-35 15-94c0-59 17-99 70-100 32-1 48 14 60 33 0-11-1-24 2-32h30l-1 268h-32zM93-21c41 0 51-33 51-76s-8-73-50-73c-40 0-46 35-46 75s5 74 45 74" id="aw"/><path d="M84 4C-5 8 30-112 23-190h32v120c0 31 7 50 39 49 72-2 45-101 50-169h31l1 190h-30c-1-10 1-25-2-33-11 22-28 36-60 37" id="ax"/><path d="M141-36C126-15 110 5 73 4 37 3 15-17 15-53c-1-64 63-63 125-63 3-35-9-54-41-54-24 1-41 7-42 31l-33-3c5-37 33-52 76-52 45 0 72 20 72 64v82c-1 20 7 32 28 27v20c-31 9-61-2-59-35zM48-53c0 20 12 33 32 33 41-3 63-29 60-74-43 2-92-5-92 41" id="ay"/><path d="M24 0v-261h32V0H24" id="az"/><g id="o"><use transform="matrix(0.05,0,0,0.05,0,0)" xlink:href="#am"/><use transform="matrix(0.05,0,0,0.05,5,0)" xlink:href="#av"/><use transform="matrix(0.05,0,0,0.05,17,0)" xlink:href="#aw"/><use transform="matrix(0.05,0,0,0.05,27,0)" xlink:href="#ax"/><use transform="matrix(0.05,0,0,0.05,37,0)" xlink:href="#ay"/><use transform="matrix(0.05,0,0,0.05,47,0)" xlink:href="#az"/><use transform="matrix(0.05,0,0,0.05,50.95,0)" xlink:href="#au"/></g><path d="M240 0l2-218c-23 76-54 145-80 218h-23L58-218 59 0H30v-248h44l77 211c21-75 51-140 76-211h43V0h-30" id="aA"/><path d="M59-47c-2 24 18 29 38 22v24C64 9 27 4 27-40v-127H5v-23h24l9-43h21v43h35v23H59v120" id="aB"/><path d="M135-143c-3-34-86-38-87 0 15 53 115 12 119 90S17 21 10-45l28-5c4 36 97 45 98 0-10-56-113-15-118-90-4-57 82-63 122-42 12 7 21 19 24 35" id="aC"/><g id="p"><use transform="matrix(0.05,0,0,0.05,0,0)" xlink:href="#am"/><use transform="matrix(0.05,0,0,0.05,5,0)" xlink:href="#aA"/><use transform="matrix(0.05,0,0,0.05,19.950000000000003,0)" xlink:href="#ao"/><use transform="matrix(0.05,0,0,0.05,29.950000000000003,0)" xlink:href="#ao"/><use transform="matrix(0.05,0,0,0.05,39.95,0)" xlink:href="#aB"/><use transform="matrix(0.05,0,0,0.05,44.95,0)" xlink:href="#aC"/></g><g id="q"><use transform="matrix(0.05,0,0,0.05,0,0)" xlink:href="#am"/><use transform="matrix(0.05,0,0,0.05,5,0)" xlink:href="#aA"/><use transform="matrix(0.05,0,0,0.05,19.950000000000003,0)" xlink:href="#ao"/><use transform="matrix(0.05,0,0,0.05,29.950000000000003,0)" xlink:href="#ao"/><use transform="matrix(0.05,0,0,0.05,39.95,0)" xlink:href="#aB"/><use transform="matrix(0.05,0,0,0.05,44.95,0)" xlink:href="#aC"/><use transform="matrix(0.05,0,0,0.05,53.95,0)" xlink:href="#au"/></g><path d="M185-189c-5-48-123-54-124 2 14 75 158 14 163 119 3 78-121 87-175 55-17-10-28-26-33-46l33-7c5 56 141 63 141-1 0-78-155-14-162-118-5-82 145-84 179-34 5 7 8 16 11 25" id="aD"/><g id="r"><use transform="matrix(0.05,0,0,0.05,0,0)" xlink:href="#am"/><use transform="matrix(0.05,0,0,0.05,5,0)" xlink:href="#aD"/><use transform="matrix(0.05,0,0,0.05,17,0)" xlink:href="#aB"/><use transform="matrix(0.05,0,0,0.05,22,0)" xlink:href="#ay"/><use transform="matrix(0.05,0,0,0.05,32,0)" xlink:href="#ar"/><use transform="matrix(0.05,0,0,0.05,37.95,0)" xlink:href="#aB"/></g><g id="s"><use transform="matrix(0.05,0,0,0.05,0,0)" xlink:href="#am"/><use transform="matrix(0.05,0,0,0.05,5,0)" xlink:href="#aD"/><use transform="matrix(0.05,0,0,0.05,17,0)" xlink:href="#aB"/><use transform="matrix(0.05,0,0,0.05,22,0)" xlink:href="#ay"/><use transform="matrix(0.05,0,0,0.05,32,0)" xlink:href="#ar"/><use transform="matrix(0.05,0,0,0.05,37.95,0)" xlink:href="#aB"/><use transform="matrix(0.05,0,0,0.05,42.95,0)" xlink:href="#au"/></g><path d="M63-220v92h138v28H63V0H30v-248h175v28H63" id="aE"/><path d="M24-231v-30h32v30H24zM24 0v-190h32V0H24" id="aF"/><path d="M117-194c89-4 53 116 60 194h-32v-121c0-31-8-49-39-48C34-167 62-67 57 0H25l-1-190h30c1 10-1 24 2 32 11-22 29-35 61-36" id="aG"/><path d="M106-169C34-169 62-67 57 0H25v-261h32l-1 103c12-21 28-36 61-36 89 0 53 116 60 194h-32v-121c2-32-8-49-39-48" id="aH"/><g id="t"><use transform="matrix(0.05,0,0,0.05,0,0)" xlink:href="#am"/><use transform="matrix(0.05,0,0,0.05,5,0)" xlink:href="#aE"/><use transform="matrix(0.05,0,0,0.05,15.950000000000001,0)" xlink:href="#aF"/><use transform="matrix(0.05,0,0,0.05,19.900000000000002,0)" xlink:href="#aG"/><use transform="matrix(0.05,0,0,0.05,29.900000000000002,0)" xlink:href="#aF"/><use transform="matrix(0.05,0,0,0.05,33.85,0)" xlink:href="#aC"/><use transform="matrix(0.05,0,0,0.05,42.85,0)" xlink:href="#aH"/></g><g id="u"><use transform="matrix(0.05,0,0,0.05,0,0)" xlink:href="#am"/><use transform="matrix(0.05,0,0,0.05,5,0)" xlink:href="#aE"/><use transform="matrix(0.05,0,0,0.05,15.950000000000001,0)" xlink:href="#aF"/><use transform="matrix(0.05,0,0,0.05,19.900000000000002,0)" xlink:href="#aG"/><use transform="matrix(0.05,0,0,0.05,29.900000000000002,0)" xlink:href="#aF"/><use transform="matrix(0.05,0,0,0.05,33.85,0)" xlink:href="#aC"/><use transform="matrix(0.05,0,0,0.05,42.85,0)" xlink:href="#aH"/><use transform="matrix(0.05,0,0,0.05,52.85,0)" xlink:href="#au"/></g><path d="M140-251c81 0 123 46 123 126C263-46 219 4 140 4 59 4 17-45 17-125s42-126 123-126zm0 227c63 0 89-41 89-101s-29-99-89-99c-61 0-89 39-89 99S79-25 140-24" id="aI"/><path d="M108 0H70L1-190h34L89-25l56-165h34" id="aJ"/><path d="M115-194c55 1 70 41 70 98S169 2 115 4C84 4 66-9 55-30l1 105H24l-1-265h31l2 30c10-21 28-34 59-34zm-8 174c40 0 45-34 45-75s-6-73-45-74c-42 0-51 32-51 76 0 43 10 73 51 73" id="aK"/><g id="v"><use transform="matrix(0.05,0,0,0.05,0,0)" xlink:href="#am"/><use transform="matrix(0.05,0,0,0.05,5,0)" xlink:href="#aI"/><use transform="matrix(0.05,0,0,0.05,19,0)" xlink:href="#aJ"/><use transform="matrix(0.05,0,0,0.05,28,0)" xlink:href="#ao"/><use transform="matrix(0.05,0,0,0.05,38,0)" xlink:href="#ar"/><use transform="matrix(0.05,0,0,0.05,43.95,0)" xlink:href="#az"/><use transform="matrix(0.05,0,0,0.05,47.900000000000006,0)" xlink:href="#ay"/><use transform="matrix(0.05,0,0,0.05,57.900000000000006,0)" xlink:href="#aK"/></g><g id="w"><use transform="matrix(0.05,0,0,0.05,0,0)" xlink:href="#am"/><use transform="matrix(0.05,0,0,0.05,5,0)" xlink:href="#aI"/><use transform="matrix(0.05,0,0,0.05,19,0)" xlink:href="#aJ"/><use transform="matrix(0.05,0,0,0.05,28,0)" xlink:href="#ao"/><use transform="matrix(0.05,0,0,0.05,38,0)" xlink:href="#ar"/><use transform="matrix(0.05,0,0,0.05,43.95,0)" xlink:href="#az"/><use transform="matrix(0.05,0,0,0.05,47.900000000000006,0)" xlink:href="#ay"/><use transform="matrix(0.05,0,0,0.05,57.900000000000006,0)" xlink:href="#aK"/><use transform="matrix(0.05,0,0,0.05,67.9,0)" xlink:href="#au"/></g><path d="M30-248c118-7 216 8 213 122C240-48 200 0 122 0H30v-248zM63-27c89 8 146-16 146-99s-60-101-146-95v194" id="aL"/><path d="M177-190C167-65 218 103 67 71c-23-6-38-20-44-43l32-5c15 47 100 32 89-28v-30C133-14 115 1 83 1 29 1 15-40 15-95c0-56 16-97 71-98 29-1 48 16 59 35 1-10 0-23 2-32h30zM94-22c36 0 50-32 50-73 0-42-14-75-50-75-39 0-46 34-46 75s6 73 46 73" id="aM"/><g id="x"><use transform="matrix(0.05,0,0,0.05,0,0)" xlink:href="#am"/><use transform="matrix(0.05,0,0,0.05,5,0)" xlink:href="#aL"/><use transform="matrix(0.05,0,0,0.05,17.950000000000003,0)" xlink:href="#ax"/><use transform="matrix(0.05,0,0,0.05,27.950000000000003,0)" xlink:href="#ar"/><use transform="matrix(0.05,0,0,0.05,33.900000000000006,0)" xlink:href="#aF"/><use transform="matrix(0.05,0,0,0.05,37.85000000000001,0)" xlink:href="#aG"/><use transform="matrix(0.05,0,0,0.05,47.85000000000001,0)" xlink:href="#aM"/><use transform="matrix(0.05,0,0,0.05,57.85,0)" xlink:href="#au"/></g><g id="y"><use transform="matrix(0.05,0,0,0.05,0,0)" xlink:href="#am"/><use transform="matrix(0.05,0,0,0.05,5,0)" xlink:href="#aL"/><use transform="matrix(0.05,0,0,0.05,17.950000000000003,0)" xlink:href="#ax"/><use transform="matrix(0.05,0,0,0.05,27.950000000000003,0)" xlink:href="#ar"/><use transform="matrix(0.05,0,0,0.05,33.900000000000006,0)" xlink:href="#aF"/><use transform="matrix(0.05,0,0,0.05,37.85000000000001,0)" xlink:href="#aG"/><use transform="matrix(0.05,0,0,0.05,47.85000000000001,0)" xlink:href="#aM"/></g><path d="M212-179c-10-28-35-45-73-45-59 0-87 40-87 99 0 60 29 101 89 101 43 0 62-24 78-52l27 14C228-24 195 4 139 4 59 4 22-46 18-125c-6-104 99-153 187-111 19 9 31 26 39 46" id="aN"/><g id="z"><use transform="matrix(0.07407407407407408,0,0,0.07407407407407408,0,0)" xlink:href="#aN"/><use transform="matrix(0.07407407407407408,0,0,0.07407407407407408,19.185185185185187,0)" xlink:href="#ax"/><use transform="matrix(0.07407407407407408,0,0,0.07407407407407408,34,0)" xlink:href="#ar"/><use transform="matrix(0.07407407407407408,0,0,0.07407407407407408,42.814814814814824,0)" xlink:href="#ar"/><use transform="matrix(0.07407407407407408,0,0,0.07407407407407408,51.62962962962963,0)" xlink:href="#ao"/><use transform="matrix(0.07407407407407408,0,0,0.07407407407407408,66.44444444444446,0)" xlink:href="#aG"/><use transform="matrix(0.07407407407407408,0,0,0.07407407407407408,81.25925925925927,0)" xlink:href="#aB"/></g><path d="M232-93c-1 65-40 97-104 97C67 4 28-28 28-90v-158h33c8 89-33 224 67 224 102 0 64-133 71-224h33v155" id="aO"/><path d="M85-194c31 0 48 13 60 33l-1-100h32l1 261h-30c-2-10 0-23-3-31C134-8 116 4 85 4 32 4 16-35 15-94c0-66 23-100 70-100zm9 24c-40 0-46 34-46 75 0 40 6 74 45 74 42 0 51-32 51-76 0-42-9-74-50-73" id="aP"/><g id="A"><use transform="matrix(0.07407407407407408,0,0,0.07407407407407408,0,0)" xlink:href="#aO"/><use transform="matrix(0.07407407407407408,0,0,0.07407407407407408,19.185185185185187,0)" xlink:href="#aK"/><use transform="matrix(0.07407407407407408,0,0,0.07407407407407408,34,0)" xlink:href="#aP"/><use transform="matrix(0.07407407407407408,0,0,0.07407407407407408,48.81481481481481,0)" xlink:href="#ay"/><use transform="matrix(0.07407407407407408,0,0,0.07407407407407408,63.629629629629626,0)" xlink:href="#aB"/><use transform="matrix(0.07407407407407408,0,0,0.07407407407407408,71.03703703703704,0)" xlink:href="#ao"/><use transform="matrix(0.07407407407407408,0,0,0.07407407407407408,85.85185185185185,0)" xlink:href="#aC"/></g><path d="M206 0h-36l-40-164L89 0H53L-1-190h32L70-26l43-164h34l41 164 42-164h31" id="aQ"/><g id="B"><use transform="matrix(0.05,0,0,0.05,0,0)" xlink:href="#aQ"/><use transform="matrix(0.05,0,0,0.05,12.950000000000001,0)" xlink:href="#aH"/><use transform="matrix(0.05,0,0,0.05,22.950000000000003,0)" xlink:href="#ay"/><use transform="matrix(0.05,0,0,0.05,32.95,0)" xlink:href="#aB"/></g><g id="C"><use transform="matrix(0.05,0,0,0.05,0,0)" xlink:href="#aQ"/><use transform="matrix(0.05,0,0,0.05,12.950000000000001,0)" xlink:href="#ao"/></g><path d="M96-169c-40 0-48 33-48 73s9 75 48 75c24 0 41-14 43-38l32 2c-6 37-31 61-74 61-59 0-76-41-82-99-10-93 101-131 147-64 4 7 5 14 7 22l-32 3c-4-21-16-35-41-35" id="aR"/><path d="M179-190L93 31C79 59 56 82 12 73V49c39 6 53-20 64-50L1-190h34L92-34l54-156h33" id="aS"/><g id="D"><use transform="matrix(0.05,0,0,0.05,0,0)" xlink:href="#aR"/><use transform="matrix(0.05,0,0,0.05,9,0)" xlink:href="#ax"/><use transform="matrix(0.05,0,0,0.05,19,0)" xlink:href="#ar"/><use transform="matrix(0.05,0,0,0.05,24.95,0)" xlink:href="#ar"/><use transform="matrix(0.05,0,0,0.05,30.899999999999995,0)" xlink:href="#ao"/><use transform="matrix(0.05,0,0,0.05,40.9,0)" xlink:href="#aG"/><use transform="matrix(0.05,0,0,0.05,50.9,0)" xlink:href="#aB"/><use transform="matrix(0.05,0,0,0.05,55.900000000000006,0)" xlink:href="#az"/><use transform="matrix(0.05,0,0,0.05,59.85,0)" xlink:href="#aS"/></g><path d="M210-169c-67 3-38 105-44 169h-31v-121c0-29-5-50-35-48C34-165 62-65 56 0H25l-1-190h30c1 10-1 24 2 32 10-44 99-50 107 0 11-21 27-35 58-36 85-2 47 119 55 194h-31v-121c0-29-5-49-35-48" id="aT"/><g id="E"><use transform="matrix(0.05,0,0,0.05,0,0)" xlink:href="#aR"/><use transform="matrix(0.05,0,0,0.05,9,0)" xlink:href="#az"/><use transform="matrix(0.05,0,0,0.05,12.949999999999998,0)" xlink:href="#ay"/><use transform="matrix(0.05,0,0,0.05,22.95,0)" xlink:href="#aF"/><use transform="matrix(0.05,0,0,0.05,26.899999999999995,0)" xlink:href="#aT"/></g><g id="F"><use transform="matrix(0.05,0,0,0.05,0,0)" xlink:href="#aB"/><use transform="matrix(0.05,0,0,0.05,5,0)" xlink:href="#aH"/><use transform="matrix(0.05,0,0,0.05,15,0)" xlink:href="#aF"/><use transform="matrix(0.05,0,0,0.05,18.95,0)" xlink:href="#aG"/><use transform="matrix(0.05,0,0,0.05,28.950000000000003,0)" xlink:href="#aM"/><use transform="matrix(0.05,0,0,0.05,38.95,0)" xlink:href="#aC"/></g><g id="G"><use transform="matrix(0.05,0,0,0.05,0,0)" xlink:href="#ay"/><use transform="matrix(0.05,0,0,0.05,10,0)" xlink:href="#ar"/><use transform="matrix(0.05,0,0,0.05,15.949999999999998,0)" xlink:href="#ao"/></g><path d="M143 0L79-87 56-68V0H24v-261h32v163l83-92h37l-77 82L181 0h-38" id="aU"/><g id="H"><use transform="matrix(0.05,0,0,0.05,0,0)" xlink:href="#az"/><use transform="matrix(0.05,0,0,0.05,3.95,0)" xlink:href="#aF"/><use transform="matrix(0.05,0,0,0.05,7.9,0)" xlink:href="#aU"/><use transform="matrix(0.05,0,0,0.05,16.9,0)" xlink:href="#ao"/></g><g id="I"><use transform="matrix(0.05,0,0,0.05,0,0)" xlink:href="#aG"/><use transform="matrix(0.05,0,0,0.05,10,0)" xlink:href="#aq"/><use transform="matrix(0.05,0,0,0.05,20,0)" xlink:href="#aQ"/></g><path d="M30-248c87 1 191-15 191 75 0 78-77 80-158 76V0H30v-248zm33 125c57 0 124 11 124-50 0-59-68-47-124-48v98" id="aV"/><g id="J"><use transform="matrix(0.07407407407407408,0,0,0.07407407407407408,0,0)" xlink:href="#aV"/><use transform="matrix(0.07407407407407408,0,0,0.07407407407407408,17.77777777777778,0)" xlink:href="#ao"/><use transform="matrix(0.07407407407407408,0,0,0.07407407407407408,32.592592592592595,0)" xlink:href="#aG"/><use transform="matrix(0.07407407407407408,0,0,0.07407407407407408,47.40740740740741,0)" xlink:href="#aP"/><use transform="matrix(0.07407407407407408,0,0,0.07407407407407408,62.22222222222223,0)" xlink:href="#aF"/><use transform="matrix(0.07407407407407408,0,0,0.07407407407407408,68.07407407407408,0)" xlink:href="#aG"/><use transform="matrix(0.07407407407407408,0,0,0.07407407407407408,82.88888888888889,0)" xlink:href="#aM"/></g><g id="K"><use transform="matrix(0.05,0,0,0.05,0,0)" xlink:href="#aQ"/><use transform="matrix(0.05,0,0,0.05,12.950000000000001,0)" xlink:href="#aF"/><use transform="matrix(0.05,0,0,0.05,16.900000000000002,0)" xlink:href="#az"/><use transform="matrix(0.05,0,0,0.05,20.85,0)" xlink:href="#az"/></g><g id="L"><use transform="matrix(0.05,0,0,0.05,0,0)" xlink:href="#aB"/><use transform="matrix(0.05,0,0,0.05,5,0)" xlink:href="#aH"/><use transform="matrix(0.05,0,0,0.05,15,0)" xlink:href="#aF"/><use transform="matrix(0.05,0,0,0.05,18.95,0)" xlink:href="#aG"/><use transform="matrix(0.05,0,0,0.05,28.950000000000003,0)" xlink:href="#aM"/><use transform="matrix(0.05,0,0,0.05,38.95,0)" xlink:href="#aC"/></g><g id="M"><use transform="matrix(0.05,0,0,0.05,0,0)" xlink:href="#ay"/><use transform="matrix(0.05,0,0,0.05,10,0)" xlink:href="#ar"/><use transform="matrix(0.05,0,0,0.05,15.949999999999998,0)" xlink:href="#ao"/></g><path d="M24-231v-30h32v30H24zM-9 49c24 4 33-6 33-30v-209h32V24c2 40-23 58-65 49V49" id="aW"/><g id="N"><use transform="matrix(0.07407407407407408,0,0,0.07407407407407408,0,0)" xlink:href="#aV"/><use transform="matrix(0.07407407407407408,0,0,0.07407407407407408,17.77777777777778,0)" xlink:href="#ar"/><use transform="matrix(0.07407407407407408,0,0,0.07407407407407408,26.592592592592595,0)" xlink:href="#aq"/><use transform="matrix(0.07407407407407408,0,0,0.07407407407407408,41.40740740740741,0)" xlink:href="#aW"/><use transform="matrix(0.07407407407407408,0,0,0.07407407407407408,47.25925925925927,0)" xlink:href="#ao"/><use transform="matrix(0.07407407407407408,0,0,0.07407407407407408,62.07407407407408,0)" xlink:href="#aR"/><use transform="matrix(0.07407407407407408,0,0,0.07407407407407408,75.40740740740742,0)" xlink:href="#aB"/><use transform="matrix(0.07407407407407408,0,0,0.07407407407407408,82.81481481481482,0)" xlink:href="#aF"/><use transform="matrix(0.07407407407407408,0,0,0.07407407407407408,88.66666666666667,0)" xlink:href="#aq"/><use transform="matrix(0.07407407407407408,0,0,0.07407407407407408,103.4814814814815,0)" xlink:href="#aG"/><use transform="matrix(0.07407407407407408,0,0,0.07407407407407408,118.29629629629632,0)" xlink:href="#aC"/></g><path d="M115-194c53 0 69 39 70 98 0 66-23 100-70 100C84 3 66-7 56-30L54 0H23l1-261h32v101c10-23 28-34 59-34zm-8 174c40 0 45-34 45-75 0-40-5-75-45-74-42 0-51 32-51 76 0 43 10 73 51 73" id="aX"/><g id="O"><use transform="matrix(0.05,0,0,0.05,0,0)" xlink:href="#aX"/><use transform="matrix(0.05,0,0,0.05,10,0)" xlink:href="#ao"/></g><g id="P"><use transform="matrix(0.05,0,0,0.05,0,0)" xlink:href="#az"/><use transform="matrix(0.05,0,0,0.05,3.95,0)" xlink:href="#aF"/><use transform="matrix(0.05,0,0,0.05,7.9,0)" xlink:href="#aU"/><use transform="matrix(0.05,0,0,0.05,16.9,0)" xlink:href="#ao"/></g><path d="M197 0v-115H63V0H30v-248h33v105h134v-105h34V0h-34" id="aY"/><g id="Q"><use transform="matrix(0.07407407407407408,0,0,0.07407407407407408,0,0)" xlink:href="#aY"/><use transform="matrix(0.07407407407407408,0,0,0.07407407407407408,19.185185185185187,0)" xlink:href="#aF"/><use transform="matrix(0.07407407407407408,0,0,0.07407407407407408,25.037037037037035,0)" xlink:href="#aC"/><use transform="matrix(0.07407407407407408,0,0,0.07407407407407408,38.370370370370374,0)" xlink:href="#aB"/><use transform="matrix(0.07407407407407408,0,0,0.07407407407407408,45.777777777777786,0)" xlink:href="#aq"/><use transform="matrix(0.07407407407407408,0,0,0.07407407407407408,60.5925925925926,0)" xlink:href="#ar"/><use transform="matrix(0.07407407407407408,0,0,0.07407407407407408,69.40740740740742,0)" xlink:href="#aS"/></g><g id="R"><use transform="matrix(0.05,0,0,0.05,0,0)" xlink:href="#ax"/><use transform="matrix(0.05,0,0,0.05,10,0)" xlink:href="#aC"/><use transform="matrix(0.05,0,0,0.05,19,0)" xlink:href="#ao"/><use transform="matrix(0.05,0,0,0.05,29,0)" xlink:href="#aP"/></g><g id="S"><use transform="matrix(0.05,0,0,0.05,0,0)" xlink:href="#aB"/><use transform="matrix(0.05,0,0,0.05,5,0)" xlink:href="#aq"/></g><g id="T"><use transform="matrix(0.05,0,0,0.05,0,0)" xlink:href="#aX"/><use transform="matrix(0.05,0,0,0.05,10,0)" xlink:href="#ao"/></g><g id="U"><use transform="matrix(0.07407407407407408,0,0,0.07407407407407408,0,0)" xlink:href="#aV"/><use transform="matrix(0.07407407407407408,0,0,0.07407407407407408,17.77777777777778,0)" xlink:href="#aq"/><use transform="matrix(0.07407407407407408,0,0,0.07407407407407408,32.592592592592595,0)" xlink:href="#aC"/><use transform="matrix(0.07407407407407408,0,0,0.07407407407407408,45.92592592592593,0)" xlink:href="#aB"/><use transform="matrix(0.07407407407407408,0,0,0.07407407407407408,53.33333333333334,0)" xlink:href="#ao"/><use transform="matrix(0.07407407407407408,0,0,0.07407407407407408,68.14814814814815,0)" xlink:href="#aP"/></g><g id="V"><use transform="matrix(0.07407407407407408,0,0,0.07407407407407408,0,0)" xlink:href="#aY"/><use transform="matrix(0.07407407407407408,0,0,0.07407407407407408,19.185185185185187,0)" xlink:href="#aF"/><use transform="matrix(0.07407407407407408,0,0,0.07407407407407408,25.037037037037035,0)" xlink:href="#aC"/><use transform="matrix(0.07407407407407408,0,0,0.07407407407407408,38.370370370370374,0)" xlink:href="#aB"/><use transform="matrix(0.07407407407407408,0,0,0.07407407407407408,45.777777777777786,0)" xlink:href="#aq"/><use transform="matrix(0.07407407407407408,0,0,0.07407407407407408,60.5925925925926,0)" xlink:href="#ar"/><use transform="matrix(0.07407407407407408,0,0,0.07407407407407408,69.40740740740742,0)" xlink:href="#aS"/></g><g id="X"><use transform="matrix(0.05,0,0,0.05,0,0)" xlink:href="#aQ"/><use transform="matrix(0.05,0,0,0.05,12.950000000000001,0)" xlink:href="#aH"/><use transform="matrix(0.05,0,0,0.05,22.950000000000003,0)" xlink:href="#ay"/><use transform="matrix(0.05,0,0,0.05,32.95,0)" xlink:href="#aB"/></g><g id="Y"><use transform="matrix(0.05,0,0,0.05,0,0)" xlink:href="#ax"/><use transform="matrix(0.05,0,0,0.05,10,0)" xlink:href="#aC"/><use transform="matrix(0.05,0,0,0.05,19,0)" xlink:href="#ao"/><use transform="matrix(0.05,0,0,0.05,29,0)" xlink:href="#aP"/></g><g id="Z"><use transform="matrix(0.07407407407407408,0,0,0.07407407407407408,0,0)" xlink:href="#aV"/><use transform="matrix(0.07407407407407408,0,0,0.07407407407407408,17.77777777777778,0)" xlink:href="#aq"/><use transform="matrix(0.07407407407407408,0,0,0.07407407407407408,32.592592592592595,0)" xlink:href="#aC"/><use transform="matrix(0.07407407407407408,0,0,0.07407407407407408,45.92592592592593,0)" xlink:href="#aB"/><use transform="matrix(0.07407407407407408,0,0,0.07407407407407408,53.33333333333334,0)" xlink:href="#ao"/><use transform="matrix(0.07407407407407408,0,0,0.07407407407407408,68.14814814814815,0)" xlink:href="#aP"/></g></defs></g></svg>